SplineFontDB: 3.0
FontName: Muralla-Regular
FullName: Muralla Regular
FamilyName: Muralla
Weight: Regular
Copyright: 
UComments: ""
Version: 0
ItalicAngle: 0
UnderlinePosition: 250
UnderlineWidth: 125
Ascent: 1848
Descent: 200
InvalidEm: 0
LayerCount: 2
Layer: 0 0 "Back" 1
Layer: 1 0 "Fore" 0
XUID: [1021 365 301789354 4434402]
StyleMap: 0x0000
FSType: 0
OS2Version: 0
OS2_WeightWidthSlopeOnly: 0
OS2_UseTypoMetrics: 1
CreationTime: 1490894790
ModificationTime: 1490894791
OS2TypoAscent: 0
OS2TypoAOffset: 1
OS2TypoDescent: 0
OS2TypoDOffset: 1
OS2TypoLinegap: 184
OS2WinAscent: 0
OS2WinAOffset: 1
OS2WinDescent: 0
OS2WinDOffset: 1
HheadAscent: 0
HheadAOffset: 1
HheadDescent: 0
HheadDOffset: 1
Lookup: 258 0 0 "kernKerning" { "kernKerningSub 0"  } ['kern' ('DFLT' <'dflt' > 'latn' <'dflt' > ) ]
DEI: 91125
KernClass2: 0+ 0 "kernKerningSub 0"
 6 ��Ϫ�U

LangName: 0 "" "" "Regular" "" "" "" "" "" "Manufactura Independente" "ESAPA students and Manufactura Independente" "" "http://manufacturaindependente.org" "" "OFL" "http://scripts.sil.org/OFL"
Encoding: ISO8859-1
UnicodeInterp: none
NameList: AGL For New Fonts
DisplaySize: -48
AntiAlias: 1
FitToEm: 0
BeginChars: 259 169

StartChar: dollar
Encoding: 36 36 2
Width: 875
VWidth: 875
Flags: W
HStem: 250 125<125 250 375 625> 375 250<625 750> 375 125<0 125> 625 125<500 625> 750 125<125 250> 875 250<0 125> 1000 125<625 750> 1125 125<125 375 500 625>
VStem: 0 125<375 500 875 1125> 250 125<125 250 375 750> 375 125<875 1125 1250 1375> 500 125<625 750> 625 125<375 625 1000 1125>
LayerCount: 2
Fore
SplineSet
131 1125 m 0x01a0
 128 1125 125 1128 125 1131 c 2
 125 1244 l 2
 125 1247 128 1250 131 1250 c 0
 212.333333333 1250 293.666666667 1250 375 1250 c 1
 375 1369 l 2
 375 1372 378 1375 381 1375 c 2
 494 1375 l 2
 497 1375 500 1372 500 1369 c 2
 500 1250 l 1
 619 1250 l 2
 622 1250 625 1247 625 1244 c 2
 625 1131 l 2
 625 1128 622 1125 619 1125 c 2
 500 1125 l 1x01a8
 500 756 l 2x0190
 500 753 497 750 494 750 c 2
 375 750 l 1
 375 375 l 1
 456.333333333 375 537.666666667 375 619 375 c 0
 622 375 625 372 625 369 c 2
 625 256 l 2
 625 253 622 250 619 250 c 0
 537.666666667 250 456.333333333 250 375 250 c 1
 375 131 l 2
 375 128 372 125 369 125 c 2
 256 125 l 2
 253 125 250 128 250 131 c 2
 250 250 l 1
 131 250 l 2
 128 250 125 253 125 256 c 2
 125 369 l 2
 125 372 128 375 131 375 c 2
 250 375 l 1
 250 750 l 1
 131 750 l 2
 128 750 125 753 125 756 c 2
 125 869 l 2
 125 872 128 875 131 875 c 0x89c8
 212.333333333 875 293.666666667 875 375 875 c 1x04a0
 375 958.333333333 375 1041.66666667 375 1125 c 1
 293.666666667 1125 212.333333333 1125 131 1125 c 0x01a0
631 1000 m 2x0288
 628 1000 625 1003 625 1006 c 2
 625 1119 l 2
 625 1122 628 1125 631 1125 c 2
 744 1125 l 2
 747 1125 750 1122 750 1119 c 2
 750 1006 l 2
 750 1003 747 1000 744 1000 c 2
 631 1000 l 2x0288
6 875 m 2x0480
 3 875 0 878 0 881 c 0
 -0 960.333333333 0 1039.66666667 0 1119 c 0
 0 1122 3 1125 6 1125 c 2
 119 1125 l 2
 122 1125 125 1122 125 1119 c 0
 125 1039.66666667 125 960.333333333 125 881 c 0
 125 878 122 875 119 875 c 2
 6 875 l 2x0480
506 625 m 2x1090
 503 625 500 628 500 631 c 2
 500 744 l 2
 500 747 503 750 506 750 c 2
 619 750 l 2
 622 750 625 747 625 744 c 2
 625 631 l 2
 625 628 622 625 619 625 c 2
 506 625 l 2x1090
6 375 m 2x2080
 3 375 0 378 0 381 c 2
 0 494 l 2
 0 497 3 500 6 500 c 2
 119 500 l 2
 122 500 125 497 125 494 c 2
 125 381 l 2
 125 378 122 375 119 375 c 2
 6 375 l 2x2080
631 375 m 2x4088
 628 375 625 378 625 381 c 0
 625 460.333333333 625 539.666666667 625 619 c 0
 625 622 628 625 631 625 c 2
 744 625 l 2
 747 625 750 622 750 619 c 0
 750 539.666666667 750 460.333333333 750 381 c 0
 750 378 747 375 744 375 c 2
 631 375 l 2x4088
EndSplineSet
EndChar

StartChar: four
Encoding: 52 52 3
Width: 875
VWidth: 875
Flags: W
HStem: 625 250<250 500>
VStem: 0 250<875 1375> 500 250<125 625 875 1375>
LayerCount: 2
Fore
SplineSet
6 750 m 0
 3 750 0 753 0 756 c 2
 0 1369 l 2
 0 1372 3 1375 6 1375 c 0
 85.3333333333 1375 164.666666667 1375 244 1375 c 0
 247 1375 250 1372 250 1369 c 0
 250 1204.33333333 250 1039.66666667 250 875 c 1
 333.333333333 875 416.666666667 875 500 875 c 1
 500 1039.66666667 500 1204.33333333 500 1369 c 0
 500 1372 503 1375 506 1375 c 0
 585.333333333 1375 664.666666667 1375 744 1375 c 0
 747 1375 750 1372 750 1369 c 0
 750 956.333333333 750 543.666666667 750 131 c 0
 750 128 747 125 744 125 c 0
 664.666666667 125 585.333333333 125 506 125 c 0
 503 125 500 128 500 131 c 0
 500 295.666666667 500 460.333333333 500 625 c 1
 418.666666667 625 337.333333333 625 256 625 c 0
 253 625 250 628 250 631 c 2
 250 750 l 1
 168.666666667 750 87.3333333333 750 6 750 c 0
EndSplineSet
EndChar

StartChar: ampersand
Encoding: 38 38 10
Width: 875
VWidth: 875
Flags: W
HStem: 125 250<250 375 625 750> 125 125<125 250> 250 250<0 125> 500 125<125 250> 625 250<250 375> 625 125<625 750> 875 375<0 125 500 625> 1125 250<250 500>
VStem: 0 125<250 500> 125 125<500 625> 250 250<625 750> 250 125<250 375> 375 250<375 625> 500 125<875 1125> 625 125<625 750>
LayerCount: 2
Fore
SplineSet
6 875 m 2x0640
 3 875 0 878 0 881 c 2
 0 1244 l 2x0680
 0 1247 3 1250 6 1250 c 2
 125 1250 l 1x0640
 125 1369 l 2
 125 1372 128 1375 131 1375 c 2
 494 1375 l 2x0140
 497 1375 500 1372 500 1369 c 2
 500 1250 l 1x0244
 619 1250 l 2
 622 1250 625 1247 625 1244 c 2x0202
 625 881 l 2
 625 878 622 875 619 875 c 2
 506 875 l 2x0204
 503 875 500 878 500 881 c 0
 500 962.333333333 500 1043.66666667 500 1125 c 1
 416.666666667 1125 333.333333333 1125 250 1125 c 1x0114
 250 1041.66666667 250 958.333333333 250 875 c 1
 331.333333333 875 412.666666667 875 494 875 c 0
 497 875 500 872 500 869 c 0
 500 787.666666667 500 706.333333333 500 625 c 1x0614
 619 625 l 2
 622 625 625 622 625 619 c 0
 625 537.666666667 625 456.333333333 625 375 c 1x8608
 744 375 l 2
 747 375 750 372 750 369 c 0
 750 289.666666667 750 210.333333333 750 131 c 0
 750 128 747 125 744 125 c 0x8602
 664.666666667 125 585.333333333 125 506 125 c 0x4002
 503 125 500 128 500 131 c 0
 500 212.333333333 500 293.666666667 500 375 c 1x8004
 381 375 l 2
 378 375 375 378 375 381 c 0
 375 462.333333333 375 543.666666667 375 625 c 1
 256 625 l 2x8808
 253 625 250 628 250 631 c 2
 250 750 l 1x0420
 131 750 l 2
 128 750 125 753 125 756 c 2
 125 875 l 1
 6 875 l 2x0640
631 625 m 2
 628 625 625 628 625 631 c 2
 625 744 l 2
 625 747 628 750 631 750 c 2
 744 750 l 2
 747 750 750 747 750 744 c 2
 750 631 l 2x0402
 750 628 747 625 744 625 c 2
 631 625 l 2
131 500 m 2x1040
 128 500 125 503 125 506 c 2
 125 619 l 2
 125 622 128 625 131 625 c 2
 244 625 l 2
 247 625 250 622 250 619 c 2
 250 506 l 2
 250 503 247 500 244 500 c 2
 131 500 l 2x1040
6 250 m 2x2080
 3 250 0 253 0 256 c 0
 -0 335.333333333 0 414.666666667 0 494 c 0
 0 497 3 500 6 500 c 2
 119 500 l 2
 122 500 125 497 125 494 c 0
 125 414.666666667 125 335.333333333 125 256 c 0
 125 253 122 250 119 250 c 2
 6 250 l 2x2080
131 125 m 0x4008
 128 125 125 128 125 131 c 2
 125 244 l 2x4048
 125 247 128 250 131 250 c 2
 250 250 l 1x4010
 250 369 l 2
 250 372 253 375 256 375 c 2
 369 375 l 2
 372 375 375 372 375 369 c 0x8010
 375 289.666666667 375 210.333333333 375 131 c 0
 375 128 372 125 369 125 c 0x8008
 289.666666667 125 210.333333333 125 131 125 c 0x4008
EndSplineSet
EndChar

StartChar: hyphen
Encoding: 45 45 11
Width: 875
VWidth: 875
Flags: W
HStem: 625 250<125 625>
VStem: 125 500<625 875>
LayerCount: 2
Fore
SplineSet
131 625 m 0
 128 625 125 628 125 631 c 0
 125 710.333333333 125 789.666666667 125 869 c 0
 125 872 128 875 131 875 c 0
 293.666666667 875 456.333333333 875 619 875 c 0
 622 875 625 872 625 869 c 0
 625 789.666666667 625 710.333333333 625 631 c 0
 625 628 622 625 619 625 c 0
 456.333333333 625 293.666666667 625 131 625 c 0
EndSplineSet
EndChar

StartChar: Euro
Encoding: 257 8364 12
Width: 875
VWidth: 875
Flags: W
HStem: 125 250<375 625> 250 125<625 750> 500 125<0 125 375 625> 750 125<0 125 375 625> 1125 250<375 625> 1125 125<625 750>
VStem: 125 250<375 500 625 750 875 1125> 250 375<125 250 1250 1375>
LayerCount: 2
Fore
SplineSet
6 750 m 2x72
 3 750 0 753 0 756 c 2
 0 869 l 2
 0 872 3 875 6 875 c 2
 125 875 l 1
 125 1244 l 2x72
 125 1247 128 1250 131 1250 c 2
 250 1250 l 1x75
 250 1369 l 2
 250 1372 253 1375 256 1375 c 2
 619 1375 l 2x39
 622 1375 625 1372 625 1369 c 2
 625 1250 l 1
 744 1250 l 2
 747 1250 750 1247 750 1244 c 2
 750 1131 l 2
 750 1128 747 1125 744 1125 c 2x35
 375 1125 l 1
 375 1041.66666667 375 958.333333333 375 875 c 1x3a
 456.333333333 875 537.666666667 875 619 875 c 0
 622 875 625 872 625 869 c 2
 625 756 l 2x39
 625 753 622 750 619 750 c 0
 537.666666667 750 456.333333333 750 375 750 c 1
 375 625 l 1x3a
 456.333333333 625 537.666666667 625 619 625 c 0
 622 625 625 622 625 619 c 2
 625 506 l 2x39
 625 503 622 500 619 500 c 0
 537.666666667 500 456.333333333 500 375 500 c 1
 375 375 l 1xba
 744 375 l 2
 747 375 750 372 750 369 c 2
 750 256 l 2
 750 253 747 250 744 250 c 2
 625 250 l 1x71
 625 131 l 2
 625 128 622 125 619 125 c 2
 256 125 l 2xb1
 253 125 250 128 250 131 c 2
 250 250 l 1x71
 131 250 l 2
 128 250 125 253 125 256 c 0
 125 337.333333333 125 418.666666667 125 500 c 1
 6 500 l 2
 3 500 0 503 0 506 c 2
 0 619 l 2
 0 622 3 625 6 625 c 2
 125 625 l 1
 125 750 l 1
 6 750 l 2x72
EndSplineSet
EndChar

StartChar: D
Encoding: 68 68 16
Width: 875
VWidth: 875
Flags: W
HStem: 125 250<250 500> 1125 250<250 500>
VStem: 0 250<375 1125> 500 250<375 1125>
LayerCount: 2
Fore
SplineSet
6 125 m 2
 3 125 0 128 0 131 c 0
 -0 543.666666667 0 956.333333333 0 1369 c 0
 0 1372 3 1375 6 1375 c 2
 619 1375 l 2
 622 1375 625 1372 625 1369 c 2
 625 1250 l 1
 744 1250 l 2
 747 1250 750 1247 750 1244 c 0
 750 914.666666667 750 585.333333333 750 256 c 0
 750 253 747 250 744 250 c 2
 625 250 l 1
 625 131 l 2
 625 128 622 125 619 125 c 2
 6 125 l 2
500 1125 m 1
 416.666666667 1125 333.333333333 1125 250 1125 c 1
 250 875 250 625 250 375 c 1
 333.333333333 375 416.666666667 375 500 375 c 1
 500 625 500 875 500 1125 c 1
EndSplineSet
EndChar

StartChar: H
Encoding: 72 72 17
Width: 875
VWidth: 875
Flags: W
HStem: 625 250<250 500>
VStem: 0 250<125 625 875 1375> 500 250<125 625 875 1375>
LayerCount: 2
Fore
SplineSet
6 125 m 0
 3 125 0 128 0 131 c 0
 -0 543.666666667 0 956.333333333 0 1369 c 0
 0 1372 3 1375 6 1375 c 0
 85.3333333333 1375 164.666666667 1375 244 1375 c 0
 247 1375 250 1372 250 1369 c 0
 250 1204.33333333 250 1039.66666667 250 875 c 1
 333.333333333 875 416.666666667 875 500 875 c 1
 500 1039.66666667 500 1204.33333333 500 1369 c 0
 500 1372 503 1375 506 1375 c 0
 585.333333333 1375 664.666666667 1375 744 1375 c 0
 747 1375 750 1372 750 1369 c 0
 750 956.333333333 750 543.666666667 750 131 c 0
 750 128 747 125 744 125 c 0
 664.666666667 125 585.333333333 125 506 125 c 0
 503 125 500 128 500 131 c 0
 500 295.666666667 500 460.333333333 500 625 c 1
 416.666666667 625 333.333333333 625 250 625 c 1
 250 460.333333333 250 295.666666667 250 131 c 0
 250 128 247 125 244 125 c 0
 164.666666667 125 85.3333333333 125 6 125 c 0
EndSplineSet
EndChar

StartChar: L
Encoding: 76 76 18
Width: 875
VWidth: 875
Flags: W
HStem: 125 250<250 750>
VStem: 0 250<375 1375>
LayerCount: 2
Fore
SplineSet
6 125 m 0
 3 125 0 128 0 131 c 0
 -0 543.666666667 0 956.333333333 0 1369 c 0
 0 1372 3 1375 6 1375 c 0
 85.3333333333 1375 164.666666667 1375 244 1375 c 0
 247 1375 250 1372 250 1369 c 0
 250 1037.66666667 250 706.333333333 250 375 c 1
 414.666666667 375 579.333333333 375 744 375 c 0
 747 375 750 372 750 369 c 0
 750 289.666666667 750 210.333333333 750 131 c 0
 750 128 747 125 744 125 c 0
 498 125 252 125 6 125 c 0
EndSplineSet
EndChar

StartChar: softhyphen
Encoding: 173 173 19
Width: 875
VWidth: 875
Flags: W
HStem: 625 250<125 625>
VStem: 125 500<625 875>
LayerCount: 2
Fore
SplineSet
131 625 m 0
 128 625 125 628 125 631 c 0
 125 710.333333333 125 789.666666667 125 869 c 0
 125 872 128 875 131 875 c 0
 293.666666667 875 456.333333333 875 619 875 c 0
 622 875 625 872 625 869 c 0
 625 789.666666667 625 710.333333333 625 631 c 0
 625 628 622 625 619 625 c 0
 456.333333333 625 293.666666667 625 131 625 c 0
EndSplineSet
EndChar

StartChar: P
Encoding: 80 80 20
Width: 875
VWidth: 875
Flags: W
HStem: 625 250<250 500> 1125 250<250 500>
VStem: 0 250<125 625 875 1125> 500 250<875 1125>
LayerCount: 2
Fore
SplineSet
6 125 m 0
 3 125 0 128 0 131 c 0
 -0 543.666666667 0 956.333333333 0 1369 c 0
 0 1372 3 1375 6 1375 c 2
 619 1375 l 2
 622 1375 625 1372 625 1369 c 2
 625 1250 l 1
 744 1250 l 2
 747 1250 750 1247 750 1244 c 0
 750 1081.33333333 750 918.666666667 750 756 c 0
 750 753 747 750 744 750 c 2
 625 750 l 1
 625 631 l 2
 625 628 622 625 619 625 c 2
 250 625 l 1
 250 460.333333333 250 295.666666667 250 131 c 0
 250 128 247 125 244 125 c 0
 164.666666667 125 85.3333333333 125 6 125 c 0
500 1125 m 1
 416.666666667 1125 333.333333333 1125 250 1125 c 1
 250 1041.66666667 250 958.333333333 250 875 c 1
 333.333333333 875 416.666666667 875 500 875 c 1
 500 958.333333333 500 1041.66666667 500 1125 c 1
EndSplineSet
EndChar

StartChar: five
Encoding: 53 53 21
Width: 875
VWidth: 875
Flags: W
HStem: 125 250<0 375> 625 250<250 375> 1125 250<250 750>
VStem: 0 250<875 1125> 375 375<375 625>
CounterMasks: 1 e0
LayerCount: 2
Fore
SplineSet
6 625 m 2
 3 625 0 628 0 631 c 0
 -0 877 0 1123 0 1369 c 0
 0 1372 3 1375 6 1375 c 0
 252 1375 498 1375 744 1375 c 0
 747 1375 750 1372 750 1369 c 0
 750 1289.66666667 750 1210.33333333 750 1131 c 0
 750 1128 747 1125 744 1125 c 0
 579.333333333 1125 414.666666667 1125 250 1125 c 1
 250 1041.66666667 250 958.333333333 250 875 c 1
 331.333333333 875 412.666666667 875 494 875 c 0
 497 875 500 872 500 869 c 2
 500 750 l 1
 619 750 l 2
 622 750 625 747 625 744 c 2
 625 625 l 1
 744 625 l 2
 747 625 750 622 750 619 c 2
 750 256 l 2
 750 253 747 250 744 250 c 2
 625 250 l 1
 625 131 l 2
 625 128 622 125 619 125 c 2
 6 125 l 2
 3 125 0 128 0 131 c 0
 -0 210.333333333 0 289.666666667 0 369 c 0
 0 372 3 375 6 375 c 2
 375 375 l 1
 375 458.333333333 375 541.666666667 375 625 c 1
 6 625 l 2
EndSplineSet
EndChar

StartChar: T
Encoding: 84 84 22
Width: 875
VWidth: 875
Flags: W
HStem: 1125 250<0 250 500 750>
VStem: 250 250<125 1125>
LayerCount: 2
Fore
SplineSet
6 1125 m 0
 3 1125 0 1128 0 1131 c 0
 -0 1210.33333333 0 1289.66666667 0 1369 c 0
 0 1372 3 1375 6 1375 c 0
 252 1375 498 1375 744 1375 c 0
 747 1375 750 1372 750 1369 c 0
 750 1289.66666667 750 1210.33333333 750 1131 c 0
 750 1128 747 1125 744 1125 c 0
 662.666666667 1125 581.333333333 1125 500 1125 c 1
 500 793.666666667 500 462.333333333 500 131 c 0
 500 128 497 125 494 125 c 0
 414.666666667 125 335.333333333 125 256 125 c 0
 253 125 250 128 250 131 c 0
 250 462.333333333 250 793.666666667 250 1125 c 1
 168.666666667 1125 87.3333333333 1125 6 1125 c 0
EndSplineSet
EndChar

StartChar: X
Encoding: 88 88 24
Width: 875
VWidth: 875
Flags: W
HStem: 125 375<0 125 625 750> 1000 375<0 125 625 750>
VStem: 0 250<125 500 1000 1375> 500 250<125 500 1000 1375>
LayerCount: 2
Fore
SplineSet
6 1000 m 2
 3 1000 0 1003 0 1006 c 2
 0 1369 l 2
 0 1372 3 1375 6 1375 c 0
 85.3333333333 1375 164.666666667 1375 244 1375 c 0
 247 1375 250 1372 250 1369 c 2
 250 1000 l 1
 333.333333333 1000 416.666666667 1000 500 1000 c 1
 500 1369 l 2
 500 1372 503 1375 506 1375 c 0
 585.333333333 1375 664.666666667 1375 744 1375 c 0
 747 1375 750 1372 750 1369 c 2
 750 1006 l 2
 750 1003 747 1000 744 1000 c 2
 625 1000 l 1
 625 881 l 2
 625 878 622 875 619 875 c 2
 500 875 l 1
 500 791.666666667 500 708.333333333 500 625 c 1
 619 625 l 2
 622 625 625 622 625 619 c 2
 625 500 l 1
 744 500 l 2
 747 500 750 497 750 494 c 2
 750 131 l 2
 750 128 747 125 744 125 c 0
 664.666666667 125 585.333333333 125 506 125 c 0
 503 125 500 128 500 131 c 2
 500 500 l 1
 416.666666667 500 333.333333333 500 250 500 c 1
 250 131 l 2
 250 128 247 125 244 125 c 0
 164.666666667 125 85.3333333333 125 6 125 c 0
 3 125 0 128 0 131 c 2
 0 494 l 2
 0 497 3 500 6 500 c 2
 125 500 l 1
 125 619 l 2
 125 622 128 625 131 625 c 2
 250 625 l 1
 250 708.333333333 250 791.666666667 250 875 c 1
 131 875 l 2
 128 875 125 878 125 881 c 2
 125 1000 l 1
 6 1000 l 2
EndSplineSet
EndChar

StartChar: one
Encoding: 49 49 25
Width: 875
VWidth: 875
Flags: W
HStem: 1000 250<125 375>
VStem: 375 250<125 1000 1250 1375>
LayerCount: 2
Fore
SplineSet
131 1000 m 0
 128 1000 125 1003 125 1006 c 0
 125 1085.33333333 125 1164.66666667 125 1244 c 0
 125 1247 128 1250 131 1250 c 0
 212.333333333 1250 293.666666667 1250 375 1250 c 1
 375 1369 l 2
 375 1372 378 1375 381 1375 c 0
 460.333333333 1375 539.666666667 1375 619 1375 c 0
 622 1375 625 1372 625 1369 c 0
 625 956.333333333 625 543.666666667 625 131 c 0
 625 128 622 125 619 125 c 0
 539.666666667 125 460.333333333 125 381 125 c 0
 378 125 375 128 375 131 c 2
 375 1000 l 1
 293.666666667 1000 212.333333333 1000 131 1000 c 0
EndSplineSet
EndChar

StartChar: d
Encoding: 100 100 30
Width: 875
VWidth: 875
Flags: W
HStem: 125 250<250 500> 625 250<250 500>
VStem: 0 250<375 625> 500 250<375 625 875 1375>
LayerCount: 2
Fore
SplineSet
6 250 m 2
 3 250 0 253 0 256 c 0
 -0 418.666666667 0 581.333333333 0 744 c 0
 0 747 3 750 6 750 c 2
 125 750 l 1
 125 869 l 2
 125 872 128 875 131 875 c 2
 500 875 l 1
 500 1039.66666667 500 1204.33333333 500 1369 c 0
 500 1372 503 1375 506 1375 c 0
 585.333333333 1375 664.666666667 1375 744 1375 c 0
 747 1375 750 1372 750 1369 c 0
 750 956.333333333 750 543.666666667 750 131 c 0
 750 128 747 125 744 125 c 2
 131 125 l 2
 128 125 125 128 125 131 c 2
 125 250 l 1
 6 250 l 2
500 625 m 1
 416.666666667 625 333.333333333 625 250 625 c 1
 250 541.666666667 250 458.333333333 250 375 c 1
 333.333333333 375 416.666666667 375 500 375 c 1
 500 458.333333333 500 541.666666667 500 625 c 1
EndSplineSet
EndChar

StartChar: h
Encoding: 104 104 31
Width: 875
VWidth: 875
Flags: W
HStem: 625 250<250 500>
VStem: 0 250<125 625 875 1375> 500 250<125 625>
LayerCount: 2
Fore
SplineSet
6 125 m 0
 3 125 0 128 0 131 c 0
 -0 543.666666667 0 956.333333333 0 1369 c 0
 0 1372 3 1375 6 1375 c 0
 85.3333333333 1375 164.666666667 1375 244 1375 c 0
 247 1375 250 1372 250 1369 c 0
 250 1204.33333333 250 1039.66666667 250 875 c 1
 619 875 l 2
 622 875 625 872 625 869 c 2
 625 750 l 1
 744 750 l 2
 747 750 750 747 750 744 c 2
 750 131 l 2
 750 128 747 125 744 125 c 0
 664.666666667 125 585.333333333 125 506 125 c 0
 503 125 500 128 500 131 c 0
 500 295.666666667 500 460.333333333 500 625 c 1
 416.666666667 625 333.333333333 625 250 625 c 1
 250 460.333333333 250 295.666666667 250 131 c 0
 250 128 247 125 244 125 c 0
 164.666666667 125 85.3333333333 125 6 125 c 0
EndSplineSet
EndChar

StartChar: l
Encoding: 108 108 33
Width: 875
VWidth: 875
Flags: W
HStem: 125 250<250 750> 1355 20G<4.5 245.5>
VStem: 0 250<375 1375>
LayerCount: 2
Fore
SplineSet
6 250 m 2
 3 250 0 253 0 256 c 2
 0 1369 l 2
 0 1372 3 1375 6 1375 c 0
 85.3333333333 1375 164.666666667 1375 244 1375 c 0
 247 1375 250 1372 250 1369 c 0
 250 1037.66666667 250 706.333333333 250 375 c 1
 414.666666667 375 579.333333333 375 744 375 c 0
 747 375 750 372 750 369 c 0
 750 289.666666667 750 210.333333333 750 131 c 0
 750 128 747 125 744 125 c 2
 131 125 l 2
 128 125 125 128 125 131 c 2
 125 250 l 1
 6 250 l 2
EndSplineSet
EndChar

StartChar: p
Encoding: 112 112 36
Width: 875
VWidth: 875
Flags: W
HStem: -375 21G<4.5 244> 125 250<250 500> 625 250<250 500>
VStem: 0 250<-375 125 375 625> 500 250<375 625>
LayerCount: 2
Fore
SplineSet
6 -375 m 0
 3 -375 0 -372 0 -369 c 2
 0 744 l 2
 0 747 3 750 6 750 c 2
 125 750 l 1
 125 869 l 2
 125 872 128 875 131 875 c 0
 293.666666667 875 456.333333333 875 619 875 c 0
 622 875 625 872 625 869 c 2
 625 750 l 1
 744 750 l 2
 747 750 750 747 750 744 c 0
 750 581.333333333 750 418.666666667 750 256 c 0
 750 253 747 250 744 250 c 2
 625 250 l 1
 625 131 l 2
 625 128 622 125 619 125 c 2
 250 125 l 1
 250 -39.6666666667 250 -204.333333333 250 -369 c 0
 250 -372 247 -375 244 -375 c 0
 164.666666667 -375 85.3333333333 -375 6 -375 c 0
500 625 m 1
 416.666666667 625 333.333333333 625 250 625 c 1
 250 541.666666667 250 458.333333333 250 375 c 1
 333.333333333 375 416.666666667 375 500 375 c 1
 500 458.333333333 500 541.666666667 500 625 c 1
EndSplineSet
EndChar

StartChar: t
Encoding: 116 116 37
Width: 875
VWidth: 875
Flags: W
HStem: 1000 250<0 250 500 750> 1355 20G<254.5 495.5>
VStem: 250 250<500 1000 1250 1375>
LayerCount: 2
Fore
SplineSet
6 1000 m 0
 3 1000 0 1003 0 1006 c 0
 -0 1085.33333333 0 1164.66666667 0 1244 c 0
 0 1247 3 1250 6 1250 c 0
 87.3333333333 1250 168.666666667 1250 250 1250 c 1
 250 1369 l 2
 250 1372 253 1375 256 1375 c 0
 335.333333333 1375 414.666666667 1375 494 1375 c 0
 497 1375 500 1372 500 1369 c 2
 500 1250 l 1
 581.333333333 1250 662.666666667 1250 744 1250 c 0
 747 1250 750 1247 750 1244 c 0
 750 1164.66666667 750 1085.33333333 750 1006 c 0
 750 1003 747 1000 744 1000 c 0
 662.666666667 1000 581.333333333 1000 500 1000 c 1
 500 835.333333333 500 670.666666667 500 506 c 0
 500 503 497 500 494 500 c 0
 414.666666667 500 335.333333333 500 256 500 c 0
 253 500 250 503 250 506 c 0
 250 670.666666667 250 835.333333333 250 1000 c 1
 168.666666667 1000 87.3333333333 1000 6 1000 c 0
EndSplineSet
EndChar

StartChar: x
Encoding: 120 120 38
Width: 875
VWidth: 875
Flags: W
HStem: 125 250<125 250 500 625> 125 125<0 125 625 750> 500 375<125 250 500 625> 625 250<0 125 625 750>
VStem: 0 250<125 250 750 875> 500 250<125 250 750 875>
LayerCount: 2
Fore
SplineSet
6 625 m 2x1c
 3 625 0 628 0 631 c 0
 -0 710.333333333 0 789.666666667 0 869 c 0
 0 872 3 875 6 875 c 0x1c
 85.3333333333 875 164.666666667 875 244 875 c 0
 247 875 250 872 250 869 c 2
 250 750 l 1
 333.333333333 750 416.666666667 750 500 750 c 1
 500 869 l 2
 500 872 503 875 506 875 c 0x2c
 585.333333333 875 664.666666667 875 744 875 c 0
 747 875 750 872 750 869 c 0
 750 789.666666667 750 710.333333333 750 631 c 0
 750 628 747 625 744 625 c 2
 625 625 l 1x1c
 625 506 l 2
 625 503 622 500 619 500 c 2
 500 500 l 1
 500 375 l 1
 619 375 l 2xac
 622 375 625 372 625 369 c 2
 625 250 l 1
 744 250 l 2
 747 250 750 247 750 244 c 2
 750 131 l 2
 750 128 747 125 744 125 c 0x4c
 664.666666667 125 585.333333333 125 506 125 c 0x8c
 503 125 500 128 500 131 c 2
 500 250 l 1
 416.666666667 250 333.333333333 250 250 250 c 1x4c
 250 131 l 2
 250 128 247 125 244 125 c 0x8c
 164.666666667 125 85.3333333333 125 6 125 c 0
 3 125 0 128 0 131 c 2
 0 244 l 2
 0 247 3 250 6 250 c 2
 125 250 l 1x4c
 125 369 l 2
 125 372 128 375 131 375 c 2
 250 375 l 1
 250 500 l 1
 131 500 l 2xac
 128 500 125 503 125 506 c 2
 125 625 l 1
 6 625 l 2x1c
EndSplineSet
EndChar

StartChar: zero
Encoding: 48 48 44
Width: 875
VWidth: 875
Flags: W
HStem: 125 125<250 500> 500 250<250 375> 1125 250<250 500>
VStem: 0 375<500 750> 0 250<250 500 750 1125> 375 375<750 1000> 500 250<250 750 1000 1125>
LayerCount: 2
Fore
SplineSet
381 750 m 2xea
 378 750 375 753 375 756 c 0
 375 835.333333333 375 914.666666667 375 994 c 0xe4
 375 997 378 1000 381 1000 c 2
 500 1000 l 1
 500 1125 l 1
 416.666666667 1125 333.333333333 1125 250 1125 c 1
 250 750 l 1xea
 369 750 l 2
 372 750 375 747 375 744 c 0
 375 664.666666667 375 585.333333333 375 506 c 0xf0
 375 503 372 500 369 500 c 2
 250 500 l 1
 250 416.666666667 250 333.333333333 250 250 c 1
 333.333333333 250 416.666666667 250 500 250 c 1
 500 416.666666667 500 583.333333333 500 750 c 1
 381 750 l 2xea
6 250 m 2
 3 250 0 253 0 256 c 0
 -0 585.333333333 0 914.666666667 0 1244 c 0
 0 1247 3 1250 6 1250 c 2
 125 1250 l 1
 125 1369 l 2
 125 1372 128 1375 131 1375 c 0
 293.666666667 1375 456.333333333 1375 619 1375 c 0
 622 1375 625 1372 625 1369 c 2
 625 1250 l 1
 744 1250 l 2
 747 1250 750 1247 750 1244 c 0
 750 914.666666667 750 585.333333333 750 256 c 0xea
 750 253 747 250 744 250 c 2
 625 250 l 1
 625 131 l 2
 625 128 622 125 619 125 c 0
 456.333333333 125 293.666666667 125 131 125 c 0
 128 125 125 128 125 131 c 2
 125 250 l 1
 6 250 l 2
EndSplineSet
EndChar

StartChar: E
Encoding: 69 69 46
Width: 875
VWidth: 875
Flags: W
HStem: 125 250<250 750> 625 250<250 750> 1125 250<250 750>
VStem: 0 750<125 375 625 875 1125 1375> 0 250<375 625 875 1125>
CounterMasks: 1 e0
LayerCount: 2
Fore
SplineSet
6 125 m 0xf0
 3 125 0 128 0 131 c 0
 -0 543.666666667 0 956.333333333 0 1369 c 0
 0 1372 3 1375 6 1375 c 0
 252 1375 498 1375 744 1375 c 0
 747 1375 750 1372 750 1369 c 0
 750 1289.66666667 750 1210.33333333 750 1131 c 0xf0
 750 1128 747 1125 744 1125 c 0
 579.333333333 1125 414.666666667 1125 250 1125 c 1
 250 1041.66666667 250 958.333333333 250 875 c 1xe8
 414.666666667 875 579.333333333 875 744 875 c 0
 747 875 750 872 750 869 c 0
 750 789.666666667 750 710.333333333 750 631 c 0xf0
 750 628 747 625 744 625 c 0
 579.333333333 625 414.666666667 625 250 625 c 1
 250 541.666666667 250 458.333333333 250 375 c 1xe8
 414.666666667 375 579.333333333 375 744 375 c 0
 747 375 750 372 750 369 c 0
 750 289.666666667 750 210.333333333 750 131 c 0
 750 128 747 125 744 125 c 0
 498 125 252 125 6 125 c 0xf0
EndSplineSet
EndChar

StartChar: braceleft
Encoding: 123 123 48
Width: 875
VWidth: 875
Flags: W
HStem: 125 250<500 750> 625 250<0 250> 1125 250<500 750>
VStem: 0 375<625 875> 250 500<125 375 1125 1375> 250 250<375 625 875 1125>
CounterMasks: 1 e0
LayerCount: 2
Fore
SplineSet
6 625 m 0xe4
 3 625 0 628 0 631 c 0
 -0 710.333333333 0 789.666666667 0 869 c 0xf0
 0 872 3 875 6 875 c 0
 87.3333333333 875 168.666666667 875 250 875 c 1xe4
 250 1039.66666667 250 1204.33333333 250 1369 c 0
 250 1372 253 1375 256 1375 c 0
 418.666666667 1375 581.333333333 1375 744 1375 c 0
 747 1375 750 1372 750 1369 c 0
 750 1289.66666667 750 1210.33333333 750 1131 c 0xe8
 750 1128 747 1125 744 1125 c 0
 662.666666667 1125 581.333333333 1125 500 1125 c 1
 500 1043.66666667 500 962.333333333 500 881 c 0xe4
 500 878 497 875 494 875 c 2
 375 875 l 1
 375 791.666666667 375 708.333333333 375 625 c 1xf0
 494 625 l 2
 497 625 500 622 500 619 c 0
 500 537.666666667 500 456.333333333 500 375 c 1xe4
 581.333333333 375 662.666666667 375 744 375 c 0
 747 375 750 372 750 369 c 0
 750 289.666666667 750 210.333333333 750 131 c 0
 750 128 747 125 744 125 c 0
 581.333333333 125 418.666666667 125 256 125 c 0
 253 125 250 128 250 131 c 0xe8
 250 295.666666667 250 460.333333333 250 625 c 1
 168.666666667 625 87.3333333333 625 6 625 c 0xe4
EndSplineSet
EndChar

StartChar: slash
Encoding: 47 47 58
Width: 875
VWidth: 875
Flags: W
HStem: 125 250<0 125> 1125 250<625 750>
VStem: 0 250<125 375> 125 250<375 625> 250 250<625 875> 375 250<875 1125> 500 250<1125 1375>
LayerCount: 2
Fore
SplineSet
6 125 m 0xe0
 3 125 0 128 0 131 c 0
 -0 210.333333333 0 289.666666667 0 369 c 0xe0
 0 372 3 375 6 375 c 2
 125 375 l 1
 125 456.333333333 125 537.666666667 125 619 c 0xd0
 125 622 128 625 131 625 c 2
 250 625 l 1
 250 706.333333333 250 787.666666667 250 869 c 0xc8
 250 872 253 875 256 875 c 2
 375 875 l 1
 375 956.333333333 375 1037.66666667 375 1119 c 0xc4
 375 1122 378 1125 381 1125 c 2
 500 1125 l 1
 500 1206.33333333 500 1287.66666667 500 1369 c 0
 500 1372 503 1375 506 1375 c 0
 585.333333333 1375 664.666666667 1375 744 1375 c 0
 747 1375 750 1372 750 1369 c 0
 750 1289.66666667 750 1210.33333333 750 1131 c 0xc2
 750 1128 747 1125 744 1125 c 2
 625 1125 l 1
 625 1043.66666667 625 962.333333333 625 881 c 0xc4
 625 878 622 875 619 875 c 2
 500 875 l 1xc2
 500 793.666666667 500 712.333333333 500 631 c 0xc8
 500 628 497 625 494 625 c 2
 375 625 l 1xc4
 375 543.666666667 375 462.333333333 375 381 c 0xd0
 375 378 372 375 369 375 c 2
 250 375 l 1xc8
 250 293.666666667 250 212.333333333 250 131 c 0
 250 128 247 125 244 125 c 0
 164.666666667 125 85.3333333333 125 6 125 c 0xe0
EndSplineSet
EndChar

StartChar: numbersign
Encoding: 35 35 62
Width: 875
VWidth: 875
Flags: W
HStem: 375 250<0 125 250 500 625 750> 875 250<0 125 250 500 625 750> 1355 20G<129.5 245.5 504.5 620.5>
VStem: 125 125<125 375 625 875 1125 1375> 500 125<125 375 625 875 1125 1375>
LayerCount: 2
Fore
SplineSet
6 875 m 2
 3 875 0 878 0 881 c 0
 -0 960.333333333 0 1039.66666667 0 1119 c 0
 0 1122 3 1125 6 1125 c 2
 125 1125 l 1
 125 1206.33333333 125 1287.66666667 125 1369 c 0
 125 1372 128 1375 131 1375 c 2
 244 1375 l 2
 247 1375 250 1372 250 1369 c 0
 250 1287.66666667 250 1206.33333333 250 1125 c 1
 333.333333333 1125 416.666666667 1125 500 1125 c 1
 500 1206.33333333 500 1287.66666667 500 1369 c 0
 500 1372 503 1375 506 1375 c 2
 619 1375 l 2
 622 1375 625 1372 625 1369 c 0
 625 1287.66666667 625 1206.33333333 625 1125 c 1
 744 1125 l 2
 747 1125 750 1122 750 1119 c 0
 750 1039.66666667 750 960.333333333 750 881 c 0
 750 878 747 875 744 875 c 2
 625 875 l 1
 625 791.666666667 625 708.333333333 625 625 c 1
 744 625 l 2
 747 625 750 622 750 619 c 0
 750 539.666666667 750 460.333333333 750 381 c 0
 750 378 747 375 744 375 c 2
 625 375 l 1
 625 293.666666667 625 212.333333333 625 131 c 0
 625 128 622 125 619 125 c 2
 506 125 l 2
 503 125 500 128 500 131 c 0
 500 212.333333333 500 293.666666667 500 375 c 1
 416.666666667 375 333.333333333 375 250 375 c 1
 250 293.666666667 250 212.333333333 250 131 c 0
 250 128 247 125 244 125 c 2
 131 125 l 2
 128 125 125 128 125 131 c 0
 125 212.333333333 125 293.666666667 125 375 c 1
 6 375 l 2
 3 375 0 378 0 381 c 0
 -0 460.333333333 0 539.666666667 0 619 c 0
 0 622 3 625 6 625 c 2
 125 625 l 1
 125 708.333333333 125 791.666666667 125 875 c 1
 6 875 l 2
500 875 m 1
 416.666666667 875 333.333333333 875 250 875 c 1
 250 791.666666667 250 708.333333333 250 625 c 1
 333.333333333 625 416.666666667 625 500 625 c 1
 500 708.333333333 500 791.666666667 500 875 c 1
EndSplineSet
EndChar

StartChar: C
Encoding: 67 67 64
Width: 875
VWidth: 875
Flags: W
HStem: 125 250<250 500> 250 250<625 750> 1000 250<625 750> 1125 250<250 500>
VStem: 0 250<375 1125> 500 250<375 500 1000 1125>
LayerCount: 2
Fore
SplineSet
506 1000 m 0x2c
 503 1000 500 1003 500 1006 c 2
 500 1125 l 1
 416.666666667 1125 333.333333333 1125 250 1125 c 1
 250 875 250 625 250 375 c 1
 333.333333333 375 416.666666667 375 500 375 c 1x9c
 500 494 l 2
 500 497 503 500 506 500 c 0
 585.333333333 500 664.666666667 500 744 500 c 0
 747 500 750 497 750 494 c 0
 750 414.666666667 750 335.333333333 750 256 c 0
 750 253 747 250 744 250 c 2
 625 250 l 1x4c
 625 131 l 2
 625 128 622 125 619 125 c 0
 456.333333333 125 293.666666667 125 131 125 c 0x8c
 128 125 125 128 125 131 c 2
 125 250 l 1
 6 250 l 2
 3 250 0 253 0 256 c 0
 -0 585.333333333 0 914.666666667 0 1244 c 0
 0 1247 3 1250 6 1250 c 2
 125 1250 l 1x6c
 125 1369 l 2
 125 1372 128 1375 131 1375 c 0
 293.666666667 1375 456.333333333 1375 619 1375 c 0x1c
 622 1375 625 1372 625 1369 c 2
 625 1250 l 1
 744 1250 l 2
 747 1250 750 1247 750 1244 c 0
 750 1164.66666667 750 1085.33333333 750 1006 c 0
 750 1003 747 1000 744 1000 c 0
 664.666666667 1000 585.333333333 1000 506 1000 c 0x2c
EndSplineSet
EndChar

StartChar: G
Encoding: 71 71 65
Width: 875
VWidth: 875
Flags: W
HStem: 125 250<250 500> 500 250<375 500> 1000 250<625 750> 1125 250<250 500>
VStem: 0 250<375 1125> 375 375<500 750> 500 250<375 500 1000 1125>
LayerCount: 2
Fore
SplineSet
506 1000 m 0xea
 503 1000 500 1003 500 1006 c 2
 500 1125 l 1
 416.666666667 1125 333.333333333 1125 250 1125 c 1
 250 875 250 625 250 375 c 1
 333.333333333 375 416.666666667 375 500 375 c 1
 500 500 l 1xda
 381 500 l 2
 378 500 375 503 375 506 c 0
 375 585.333333333 375 664.666666667 375 744 c 0
 375 747 378 750 381 750 c 2
 744 750 l 2
 747 750 750 747 750 744 c 0xdc
 750 581.333333333 750 418.666666667 750 256 c 0
 750 253 747 250 744 250 c 2
 625 250 l 1
 625 131 l 2
 625 128 622 125 619 125 c 0
 456.333333333 125 293.666666667 125 131 125 c 0
 128 125 125 128 125 131 c 2
 125 250 l 1
 6 250 l 2
 3 250 0 253 0 256 c 0
 -0 585.333333333 0 914.666666667 0 1244 c 0
 0 1247 3 1250 6 1250 c 2
 125 1250 l 1xea
 125 1369 l 2
 125 1372 128 1375 131 1375 c 0
 293.666666667 1375 456.333333333 1375 619 1375 c 0xda
 622 1375 625 1372 625 1369 c 2
 625 1250 l 1
 744 1250 l 2
 747 1250 750 1247 750 1244 c 0
 750 1164.66666667 750 1085.33333333 750 1006 c 0
 750 1003 747 1000 744 1000 c 0
 664.666666667 1000 585.333333333 1000 506 1000 c 0xea
EndSplineSet
EndChar

StartChar: M
Encoding: 77 77 66
Width: 875
VWidth: 875
Flags: W
HStem: 1355 20G<4.5 245.5 629.5 745.5>
VStem: 0 250<125 625 1125 1375> 375 125<500 625> 500 250<1000 1125> 625 125<125 625 1125 1375>
LayerCount: 2
Fore
SplineSet
381 500 m 2xe8
 378 500 375 503 375 506 c 2
 375 625 l 1
 250 625 l 1
 250 460.333333333 250 295.666666667 250 131 c 0
 250 128 247 125 244 125 c 0
 164.666666667 125 85.3333333333 125 6 125 c 0
 3 125 0 128 0 131 c 0
 -0 543.666666667 0 956.333333333 0 1369 c 0
 0 1372 3 1375 6 1375 c 0
 85.3333333333 1375 164.666666667 1375 244 1375 c 0
 247 1375 250 1372 250 1369 c 0
 250 1287.66666667 250 1206.33333333 250 1125 c 1
 369 1125 l 2
 372 1125 375 1122 375 1119 c 2
 375 1000 l 1xe8
 500 1000 l 1
 500 1119 l 2xd0
 500 1122 503 1125 506 1125 c 2
 625 1125 l 1
 625 1206.33333333 625 1287.66666667 625 1369 c 0
 625 1372 628 1375 631 1375 c 2
 744 1375 l 2
 747 1375 750 1372 750 1369 c 0
 750 956.333333333 750 543.666666667 750 131 c 0
 750 128 747 125 744 125 c 2
 631 125 l 2
 628 125 625 128 625 131 c 0
 625 295.666666667 625 460.333333333 625 625 c 1
 500 625 l 1
 500 506 l 2
 500 503 497 500 494 500 c 2
 381 500 l 2xe8
EndSplineSet
EndChar

StartChar: K
Encoding: 75 75 67
Width: 875
VWidth: 875
Flags: W
HStem: 125 250<625 750> 1125 250<625 750>
VStem: 0 250<125 500 1000 1375> 375 250<375 500 1000 1125> 500 250<125 250 1250 1375>
LayerCount: 2
Fore
SplineSet
381 250 m 2xe8
 378 250 375 253 375 256 c 0
 375 337.333333333 375 418.666666667 375 500 c 1
 250 500 l 1
 250 131 l 2
 250 128 247 125 244 125 c 0
 164.666666667 125 85.3333333333 125 6 125 c 0
 3 125 0 128 0 131 c 0
 -0 543.666666667 0 956.333333333 0 1369 c 0
 0 1372 3 1375 6 1375 c 0
 85.3333333333 1375 164.666666667 1375 244 1375 c 0
 247 1375 250 1372 250 1369 c 2
 250 1000 l 1
 375 1000 l 1
 375 1081.33333333 375 1162.66666667 375 1244 c 0xf0
 375 1247 378 1250 381 1250 c 2
 500 1250 l 1
 500 1369 l 2
 500 1372 503 1375 506 1375 c 0
 585.333333333 1375 664.666666667 1375 744 1375 c 0
 747 1375 750 1372 750 1369 c 0
 750 1289.66666667 750 1210.33333333 750 1131 c 0xe8
 750 1128 747 1125 744 1125 c 2
 625 1125 l 1
 625 1006 l 2xf0
 625 1003 622 1000 619 1000 c 2
 500 1000 l 1
 500 881 l 2xe8
 500 878 497 875 494 875 c 2
 375 875 l 1
 375 791.666666667 375 708.333333333 375 625 c 1xf0
 494 625 l 2
 497 625 500 622 500 619 c 2
 500 500 l 1xe8
 619 500 l 2
 622 500 625 497 625 494 c 2
 625 375 l 1xf0
 744 375 l 2
 747 375 750 372 750 369 c 0
 750 289.666666667 750 210.333333333 750 131 c 0
 750 128 747 125 744 125 c 0
 664.666666667 125 585.333333333 125 506 125 c 0
 503 125 500 128 500 131 c 2
 500 250 l 1
 381 250 l 2xe8
EndSplineSet
EndChar

StartChar: O
Encoding: 79 79 68
Width: 875
VWidth: 875
Flags: W
HStem: 125 250<250 500> 1125 250<250 500>
VStem: 0 250<375 1125> 500 250<375 1125>
LayerCount: 2
Fore
SplineSet
6 250 m 2
 3 250 0 253 0 256 c 0
 -0 585.333333333 0 914.666666667 0 1244 c 0
 0 1247 3 1250 6 1250 c 2
 125 1250 l 1
 125 1369 l 2
 125 1372 128 1375 131 1375 c 0
 293.666666667 1375 456.333333333 1375 619 1375 c 0
 622 1375 625 1372 625 1369 c 2
 625 1250 l 1
 744 1250 l 2
 747 1250 750 1247 750 1244 c 0
 750 914.666666667 750 585.333333333 750 256 c 0
 750 253 747 250 744 250 c 2
 625 250 l 1
 625 131 l 2
 625 128 622 125 619 125 c 0
 456.333333333 125 293.666666667 125 131 125 c 0
 128 125 125 128 125 131 c 2
 125 250 l 1
 6 250 l 2
500 1125 m 1
 416.666666667 1125 333.333333333 1125 250 1125 c 1
 250 875 250 625 250 375 c 1
 333.333333333 375 416.666666667 375 500 375 c 1
 500 625 500 875 500 1125 c 1
EndSplineSet
EndChar

StartChar: S
Encoding: 83 83 69
Width: 875
VWidth: 875
Flags: W
HStem: 125 250<250 500> 250 250<0 125> 625 250<250 500> 1000 250<625 750> 1125 250<250 500>
VStem: 0 250<375 500 875 1125> 500 250<375 625 1000 1125>
LayerCount: 2
Fore
SplineSet
506 1000 m 0x36
 503 1000 500 1003 500 1006 c 2
 500 1125 l 1
 416.666666667 1125 333.333333333 1125 250 1125 c 1
 250 1041.66666667 250 958.333333333 250 875 c 1
 619 875 l 2
 622 875 625 872 625 869 c 2
 625 750 l 1
 744 750 l 2
 747 750 750 747 750 744 c 0
 750 581.333333333 750 418.666666667 750 256 c 0
 750 253 747 250 744 250 c 2
 625 250 l 1x6e
 625 131 l 2
 625 128 622 125 619 125 c 0
 456.333333333 125 293.666666667 125 131 125 c 0xa6
 128 125 125 128 125 131 c 2
 125 250 l 1
 6 250 l 2
 3 250 0 253 0 256 c 0
 -0 335.333333333 0 414.666666667 0 494 c 0
 0 497 3 500 6 500 c 0
 85.3333333333 500 164.666666667 500 244 500 c 0x66
 247 500 250 497 250 494 c 2
 250 375 l 1
 333.333333333 375 416.666666667 375 500 375 c 1
 500 458.333333333 500 541.666666667 500 625 c 1
 131 625 l 2
 128 625 125 628 125 631 c 2
 125 750 l 1
 6 750 l 2
 3 750 0 753 0 756 c 0
 -0 918.666666667 0 1081.33333333 0 1244 c 0
 0 1247 3 1250 6 1250 c 2
 125 1250 l 1xb6
 125 1369 l 2
 125 1372 128 1375 131 1375 c 0
 293.666666667 1375 456.333333333 1375 619 1375 c 0x2e
 622 1375 625 1372 625 1369 c 2
 625 1250 l 1
 744 1250 l 2
 747 1250 750 1247 750 1244 c 0
 750 1164.66666667 750 1085.33333333 750 1006 c 0
 750 1003 747 1000 744 1000 c 0
 664.666666667 1000 585.333333333 1000 506 1000 c 0x36
EndSplineSet
EndChar

StartChar: W
Encoding: 87 87 71
Width: 875
VWidth: 875
Flags: W
HStem: 1355 20G<4.5 245.5 504.5 745.5>
VStem: 0 250<750 1375> 125 125<125 250> 500 250<750 1375> 500 125<125 250>
LayerCount: 2
Fore
SplineSet
6 375 m 2xa8
 3 375 0 378 0 381 c 0
 -0 710.333333333 0 1039.66666667 0 1369 c 0
 0 1372 3 1375 6 1375 c 0
 85.3333333333 1375 164.666666667 1375 244 1375 c 0
 247 1375 250 1372 250 1369 c 2
 250 750 l 1
 333.333333333 750 416.666666667 750 500 750 c 1
 500 1369 l 2
 500 1372 503 1375 506 1375 c 0
 585.333333333 1375 664.666666667 1375 744 1375 c 0
 747 1375 750 1372 750 1369 c 0
 750 1039.66666667 750 710.333333333 750 381 c 0xd0
 750 378 747 375 744 375 c 2
 625 375 l 1
 625 293.666666667 625 212.333333333 625 131 c 0
 625 128 622 125 619 125 c 2
 506 125 l 2
 503 125 500 128 500 131 c 2
 500 250 l 1
 416.666666667 250 333.333333333 250 250 250 c 1
 250 131 l 2
 250 128 247 125 244 125 c 2
 131 125 l 2
 128 125 125 128 125 131 c 0
 125 212.333333333 125 293.666666667 125 375 c 1
 6 375 l 2xa8
EndSplineSet
EndChar

StartChar: exclam
Encoding: 33 33 73
Width: 875
VWidth: 875
Flags: W
HStem: 125 250<250 500> 1355 20G<254.5 495.5>
VStem: 250 250<125 375 500 1375>
LayerCount: 2
Fore
SplineSet
256 500 m 0
 253 500 250 503 250 506 c 2
 250 1369 l 2
 250 1372 253 1375 256 1375 c 0
 335.333333333 1375 414.666666667 1375 494 1375 c 0
 497 1375 500 1372 500 1369 c 2
 500 506 l 2
 500 503 497 500 494 500 c 0
 414.666666667 500 335.333333333 500 256 500 c 0
256 125 m 0
 253 125 250 128 250 131 c 0
 250 210.333333333 250 289.666666667 250 369 c 0
 250 372 253 375 256 375 c 0
 335.333333333 375 414.666666667 375 494 375 c 0
 497 375 500 372 500 369 c 0
 500 289.666666667 500 210.333333333 500 131 c 0
 500 128 497 125 494 125 c 0
 414.666666667 125 335.333333333 125 256 125 c 0
EndSplineSet
EndChar

StartChar: c
Encoding: 99 99 75
Width: 875
VWidth: 875
Flags: W
HStem: 125 250<250 750> 625 250<250 750>
VStem: 0 250<375 625>
LayerCount: 2
Fore
SplineSet
6 125 m 0
 3 125 0 128 0 131 c 0
 -0 377 0 623 0 869 c 0
 0 872 3 875 6 875 c 0
 252 875 498 875 744 875 c 0
 747 875 750 872 750 869 c 0
 750 789.666666667 750 710.333333333 750 631 c 0
 750 628 747 625 744 625 c 0
 579.333333333 625 414.666666667 625 250 625 c 1
 250 541.666666667 250 458.333333333 250 375 c 1
 414.666666667 375 579.333333333 375 744 375 c 0
 747 375 750 372 750 369 c 0
 750 289.666666667 750 210.333333333 750 131 c 0
 750 128 747 125 744 125 c 0
 498 125 252 125 6 125 c 0
EndSplineSet
EndChar

StartChar: z
Encoding: 122 122 76
Width: 875
VWidth: 875
Flags: W
HStem: 125 375<0 250> 125 125<250 750> 375 250<250 500> 500 375<500 750> 750 125<0 500>
VStem: 0 250<250 375> 500 250<625 750>
LayerCount: 2
Fore
SplineSet
6 750 m 0x2e
 3 750 0 753 0 756 c 2
 0 869 l 2
 0 872 3 875 6 875 c 0x2e
 252 875 498 875 744 875 c 0
 747 875 750 872 750 869 c 2
 750 506 l 2
 750 503 747 500 744 500 c 0
 662.666666667 500 581.333333333 500 500 500 c 1x16
 500 381 l 2
 500 378 497 375 494 375 c 0
 412.666666667 375 331.333333333 375 250 375 c 1
 250 250 l 1
 414.666666667 250 579.333333333 250 744 250 c 0
 747 250 750 247 750 244 c 2
 750 131 l 2
 750 128 747 125 744 125 c 0x66
 498 125 252 125 6 125 c 0
 3 125 0 128 0 131 c 2
 0 494 l 2
 0 497 3 500 6 500 c 0
 87.3333333333 500 168.666666667 500 250 500 c 1x86
 250 619 l 2
 250 622 253 625 256 625 c 0
 337.333333333 625 418.666666667 625 500 625 c 1
 500 750 l 1
 335.333333333 750 170.666666667 750 6 750 c 0x2e
EndSplineSet
EndChar

StartChar: g
Encoding: 103 103 77
Width: 875
VWidth: 875
Flags: W
HStem: -375 250<500 750> -375 125<250 500> 0 375<250 500> 625 250<250 500>
VStem: 0 250<-250 0 375 625> 500 250<-250 -125 375 625>
LayerCount: 2
Fore
SplineSet
6 250 m 0x7c
 3 250 0 253 0 256 c 0
 -0 418.666666667 0 581.333333333 0 744 c 0
 0 747 3 750 6 750 c 2
 125 750 l 1
 125 869 l 2
 125 872 128 875 131 875 c 0
 293.666666667 875 456.333333333 875 619 875 c 0
 622 875 625 872 625 869 c 2
 625 750 l 1
 744 750 l 2
 747 750 750 747 750 744 c 2
 750 131 l 2
 750 128 747 125 744 125 c 2
 625 125 l 1
 625 6 l 2
 625 3 622 0 619 0 c 2
 250 0 l 1
 250 -83.3333333333 250 -166.666666667 250 -250 c 1
 333.333333333 -250 416.666666667 -250 500 -250 c 1x7c
 500 -131 l 2
 500 -128 503 -125 506 -125 c 0
 585.333333333 -125 664.666666667 -125 744 -125 c 0
 747 -125 750 -128 750 -131 c 0
 750 -210.333333333 750 -289.666666667 750 -369 c 0
 750 -372 747 -375 744 -375 c 0xbc
 498 -375 252 -375 6 -375 c 0
 3 -375 0 -372 0 -369 c 0
 -0 -206.333333333 0 -43.6666666667 0 119 c 0
 0 122 3 125 6 125 c 0
 87.3333333333 125 168.666666667 125 250 125 c 1
 250 250 l 1
 168.666666667 250 87.3333333333 250 6 250 c 0x7c
500 625 m 1
 416.666666667 625 333.333333333 625 250 625 c 1
 250 541.666666667 250 458.333333333 250 375 c 1
 333.333333333 375 416.666666667 375 500 375 c 1
 500 458.333333333 500 541.666666667 500 625 c 1
EndSplineSet
EndChar

StartChar: k
Encoding: 107 107 78
Width: 875
VWidth: 875
Flags: W
HStem: 125 250<625 750> 750 250<625 750> 1355 20G<4.5 245.5>
VStem: 0 250<125 375 750 1375> 375 375<250 375 750 875> 500 250<125 250 875 1000>
LayerCount: 2
Fore
SplineSet
381 250 m 2xf4
 378 250 375 253 375 256 c 2
 375 375 l 1
 250 375 l 1
 250 293.666666667 250 212.333333333 250 131 c 0
 250 128 247 125 244 125 c 0
 164.666666667 125 85.3333333333 125 6 125 c 0
 3 125 0 128 0 131 c 0
 -0 543.666666667 0 956.333333333 0 1369 c 0
 0 1372 3 1375 6 1375 c 0
 85.3333333333 1375 164.666666667 1375 244 1375 c 0
 247 1375 250 1372 250 1369 c 2
 250 750 l 1
 375 750 l 1
 375 869 l 2xf8
 375 872 378 875 381 875 c 2
 500 875 l 1
 500 994 l 2
 500 997 503 1000 506 1000 c 0
 585.333333333 1000 664.666666667 1000 744 1000 c 0
 747 1000 750 997 750 994 c 0xf4
 750 914.666666667 750 835.333333333 750 756 c 0xf8
 750 753 747 750 744 750 c 2
 625 750 l 1
 625 631 l 2
 625 628 622 625 619 625 c 2
 500 625 l 1
 500 500 l 1xf4
 619 500 l 2
 622 500 625 497 625 494 c 2
 625 375 l 1
 744 375 l 2
 747 375 750 372 750 369 c 0xf8
 750 289.666666667 750 210.333333333 750 131 c 0
 750 128 747 125 744 125 c 0
 664.666666667 125 585.333333333 125 506 125 c 0
 503 125 500 128 500 131 c 2
 500 250 l 1
 381 250 l 2xf4
EndSplineSet
EndChar

StartChar: o
Encoding: 111 111 80
Width: 875
VWidth: 875
Flags: W
HStem: 125 250<250 500> 625 250<250 500>
VStem: 0 250<375 625> 500 250<375 625>
LayerCount: 2
Fore
SplineSet
6 250 m 2
 3 250 0 253 0 256 c 0
 -0 418.666666667 0 581.333333333 0 744 c 0
 0 747 3 750 6 750 c 2
 125 750 l 1
 125 869 l 2
 125 872 128 875 131 875 c 0
 293.666666667 875 456.333333333 875 619 875 c 0
 622 875 625 872 625 869 c 2
 625 750 l 1
 744 750 l 2
 747 750 750 747 750 744 c 0
 750 581.333333333 750 418.666666667 750 256 c 0
 750 253 747 250 744 250 c 2
 625 250 l 1
 625 131 l 2
 625 128 622 125 619 125 c 0
 456.333333333 125 293.666666667 125 131 125 c 0
 128 125 125 128 125 131 c 2
 125 250 l 1
 6 250 l 2
500 625 m 1
 416.666666667 625 333.333333333 625 250 625 c 1
 250 541.666666667 250 458.333333333 250 375 c 1
 333.333333333 375 416.666666667 375 500 375 c 1
 500 458.333333333 500 541.666666667 500 625 c 1
EndSplineSet
EndChar

StartChar: plus
Encoding: 43 43 83
Width: 875
VWidth: 875
Flags: W
HStem: 625 250<125 250 500 625>
VStem: 250 250<500 625 875 1000>
LayerCount: 2
Fore
SplineSet
131 625 m 2
 128 625 125 628 125 631 c 0
 125 710.333333333 125 789.666666667 125 869 c 0
 125 872 128 875 131 875 c 2
 250 875 l 1
 250 994 l 2
 250 997 253 1000 256 1000 c 0
 335.333333333 1000 414.666666667 1000 494 1000 c 0
 497 1000 500 997 500 994 c 2
 500 875 l 1
 619 875 l 2
 622 875 625 872 625 869 c 0
 625 789.666666667 625 710.333333333 625 631 c 0
 625 628 622 625 619 625 c 2
 500 625 l 1
 500 506 l 2
 500 503 497 500 494 500 c 0
 414.666666667 500 335.333333333 500 256 500 c 0
 253 500 250 503 250 506 c 2
 250 625 l 1
 131 625 l 2
EndSplineSet
EndChar

StartChar: U
Encoding: 85 85 85
Width: 875
VWidth: 875
Flags: W
HStem: 125 250<250 500> 1355 20G<4.5 245.5 504.5 745.5>
VStem: 0 250<375 1375> 500 250<375 1375>
LayerCount: 2
Fore
SplineSet
6 250 m 2
 3 250 0 253 0 256 c 2
 0 1369 l 2
 0 1372 3 1375 6 1375 c 0
 85.3333333333 1375 164.666666667 1375 244 1375 c 0
 247 1375 250 1372 250 1369 c 0
 250 1037.66666667 250 706.333333333 250 375 c 1
 333.333333333 375 416.666666667 375 500 375 c 1
 500 706.333333333 500 1037.66666667 500 1369 c 0
 500 1372 503 1375 506 1375 c 0
 585.333333333 1375 664.666666667 1375 744 1375 c 0
 747 1375 750 1372 750 1369 c 2
 750 256 l 2
 750 253 747 250 744 250 c 2
 625 250 l 1
 625 131 l 2
 625 128 622 125 619 125 c 0
 456.333333333 125 293.666666667 125 131 125 c 0
 128 125 125 128 125 131 c 2
 125 250 l 1
 6 250 l 2
EndSplineSet
EndChar

StartChar: parenright
Encoding: 41 41 86
Width: 875
VWidth: 875
Flags: W
HStem: 125 250<375 500> 1125 250<375 500>
VStem: 375 375<250 375 1125 1250> 375 250<125 250 1250 1375>
LayerCount: 2
Fore
SplineSet
381 1125 m 2xe0
 378 1125 375 1128 375 1131 c 0xe0
 375 1210.33333333 375 1289.66666667 375 1369 c 0
 375 1372 378 1375 381 1375 c 0
 460.333333333 1375 539.666666667 1375 619 1375 c 0
 622 1375 625 1372 625 1369 c 2
 625 1250 l 1xd0
 744 1250 l 2
 747 1250 750 1247 750 1244 c 0
 750 914.666666667 750 585.333333333 750 256 c 0xe0
 750 253 747 250 744 250 c 2
 625 250 l 1
 625 131 l 2
 625 128 622 125 619 125 c 0
 539.666666667 125 460.333333333 125 381 125 c 0
 378 125 375 128 375 131 c 0xd0
 375 210.333333333 375 289.666666667 375 369 c 0
 375 372 378 375 381 375 c 2
 500 375 l 1
 500 625 500 875 500 1125 c 1
 381 1125 l 2xe0
EndSplineSet
EndChar

StartChar: divide
Encoding: 247 247 88
Width: 875
VWidth: 875
Flags: W
HStem: 125 250<0 125> 1125 250<625 750>
VStem: 0 250<125 375> 125 250<375 625> 250 250<625 875> 375 250<875 1125> 500 250<1125 1375>
LayerCount: 2
Fore
SplineSet
6 125 m 0xe0
 3 125 0 128 0 131 c 0
 -0 210.333333333 0 289.666666667 0 369 c 0xe0
 0 372 3 375 6 375 c 2
 125 375 l 1
 125 456.333333333 125 537.666666667 125 619 c 0xd0
 125 622 128 625 131 625 c 2
 250 625 l 1
 250 706.333333333 250 787.666666667 250 869 c 0xc8
 250 872 253 875 256 875 c 2
 375 875 l 1
 375 956.333333333 375 1037.66666667 375 1119 c 0xc4
 375 1122 378 1125 381 1125 c 2
 500 1125 l 1
 500 1206.33333333 500 1287.66666667 500 1369 c 0
 500 1372 503 1375 506 1375 c 0
 585.333333333 1375 664.666666667 1375 744 1375 c 0
 747 1375 750 1372 750 1369 c 0
 750 1289.66666667 750 1210.33333333 750 1131 c 0xc2
 750 1128 747 1125 744 1125 c 2
 625 1125 l 1
 625 1043.66666667 625 962.333333333 625 881 c 0xc4
 625 878 622 875 619 875 c 2
 500 875 l 1xc2
 500 793.666666667 500 712.333333333 500 631 c 0xc8
 500 628 497 625 494 625 c 2
 375 625 l 1xc4
 375 543.666666667 375 462.333333333 375 381 c 0xd0
 375 378 372 375 369 375 c 2
 250 375 l 1xc8
 250 293.666666667 250 212.333333333 250 131 c 0
 250 128 247 125 244 125 c 0
 164.666666667 125 85.3333333333 125 6 125 c 0xe0
EndSplineSet
EndChar

StartChar: period
Encoding: 46 46 90
Width: 875
VWidth: 875
Flags: W
HStem: 375 250<250 500>
VStem: 250 250<375 625>
LayerCount: 2
Fore
SplineSet
256 375 m 0
 253 375 250 378 250 381 c 0
 250 460.333333333 250 539.666666667 250 619 c 0
 250 622 253 625 256 625 c 0
 335.333333333 625 414.666666667 625 494 625 c 0
 497 625 500 622 500 619 c 0
 500 539.666666667 500 460.333333333 500 381 c 0
 500 378 497 375 494 375 c 0
 414.666666667 375 335.333333333 375 256 375 c 0
EndSplineSet
EndChar

StartChar: colon
Encoding: 58 58 94
Width: 875
VWidth: 875
Flags: W
HStem: 250 250<250 500> 750 250<250 500>
VStem: 250 250<250 500 750 1000>
LayerCount: 2
Fore
SplineSet
256 750 m 0
 253 750 250 753 250 756 c 0
 250 835.333333333 250 914.666666667 250 994 c 0
 250 997 253 1000 256 1000 c 0
 335.333333333 1000 414.666666667 1000 494 1000 c 0
 497 1000 500 997 500 994 c 0
 500 914.666666667 500 835.333333333 500 756 c 0
 500 753 497 750 494 750 c 0
 414.666666667 750 335.333333333 750 256 750 c 0
256 250 m 0
 253 250 250 253 250 256 c 0
 250 335.333333333 250 414.666666667 250 494 c 0
 250 497 253 500 256 500 c 0
 335.333333333 500 414.666666667 500 494 500 c 0
 497 500 500 497 500 494 c 0
 500 414.666666667 500 335.333333333 500 256 c 0
 500 253 497 250 494 250 c 0
 414.666666667 250 335.333333333 250 256 250 c 0
EndSplineSet
EndChar

StartChar: parenleft
Encoding: 40 40 95
Width: 875
VWidth: 875
Flags: W
HStem: 125 250<250 375> 1125 250<250 375>
VStem: 0 375<250 375 1125 1250> 125 250<125 250 1250 1375>
LayerCount: 2
Fore
SplineSet
6 250 m 2xd0
 3 250 0 253 0 256 c 0
 -0 585.333333333 0 914.666666667 0 1244 c 0xe0
 0 1247 3 1250 6 1250 c 2
 125 1250 l 1
 125 1369 l 2
 125 1372 128 1375 131 1375 c 0
 210.333333333 1375 289.666666667 1375 369 1375 c 0
 372 1375 375 1372 375 1369 c 0xd0
 375 1289.66666667 375 1210.33333333 375 1131 c 0
 375 1128 372 1125 369 1125 c 2
 250 1125 l 1
 250 875 250 625 250 375 c 1
 369 375 l 2
 372 375 375 372 375 369 c 0xe0
 375 289.666666667 375 210.333333333 375 131 c 0
 375 128 372 125 369 125 c 0
 289.666666667 125 210.333333333 125 131 125 c 0
 128 125 125 128 125 131 c 2
 125 250 l 1
 6 250 l 2xd0
EndSplineSet
EndChar

StartChar: question
Encoding: 63 63 97
Width: 875
VWidth: 875
Flags: W
HStem: 125 250<250 500> 500 250<250 500> 875 21G<6 245.5> 1250 125<250 500>
VStem: 0 250<875 1250> 250 250<125 375 500 625> 500 250<750 1250>
LayerCount: 2
Fore
SplineSet
6 875 m 0xf8
 3 875 0 878 0 881 c 2
 0 1244 l 2
 0 1247 3 1250 6 1250 c 2
 125 1250 l 1
 125 1369 l 2
 125 1372 128 1375 131 1375 c 0
 293.666666667 1375 456.333333333 1375 619 1375 c 0
 622 1375 625 1372 625 1369 c 2
 625 1250 l 1
 744 1250 l 2
 747 1250 750 1247 750 1244 c 2
 750 631 l 2xfa
 750 628 747 625 744 625 c 0
 662.666666667 625 581.333333333 625 500 625 c 1
 500 506 l 2
 500 503 497 500 494 500 c 0
 414.666666667 500 335.333333333 500 256 500 c 0
 253 500 250 503 250 506 c 0
 250 585.333333333 250 664.666666667 250 744 c 0xf4
 250 747 253 750 256 750 c 0
 337.333333333 750 418.666666667 750 500 750 c 1
 500 916.666666667 500 1083.33333333 500 1250 c 1xf2
 416.666666667 1250 333.333333333 1250 250 1250 c 1xf4
 250 881 l 2
 250 878 247 875 244 875 c 0
 164.666666667 875 85.3333333333 875 6 875 c 0xf8
256 125 m 0
 253 125 250 128 250 131 c 0
 250 210.333333333 250 289.666666667 250 369 c 0
 250 372 253 375 256 375 c 0
 335.333333333 375 414.666666667 375 494 375 c 0
 497 375 500 372 500 369 c 0
 500 289.666666667 500 210.333333333 500 131 c 0xf4
 500 128 497 125 494 125 c 0
 414.666666667 125 335.333333333 125 256 125 c 0
EndSplineSet
EndChar

StartChar: three
Encoding: 51 51 98
Width: 875
VWidth: 875
Flags: W
HStem: 125 250<250 500> 250 250<0 125> 625 250<250 500> 1000 250<0 125> 1125 250<250 500>
VStem: 0 250<375 500 1000 1125> 250 375<625 875> 500 250<375 625 875 1125>
LayerCount: 2
Fore
SplineSet
6 1000 m 0x35
 3 1000 0 1003 0 1006 c 0
 -0 1085.33333333 0 1164.66666667 0 1244 c 0
 0 1247 3 1250 6 1250 c 2
 125 1250 l 1x35
 125 1369 l 2
 125 1372 128 1375 131 1375 c 0
 293.666666667 1375 456.333333333 1375 619 1375 c 0x2d
 622 1375 625 1372 625 1369 c 2
 625 1250 l 1x32
 744 1250 l 2
 747 1250 750 1247 750 1244 c 2
 750 881 l 2x31
 750 878 747 875 744 875 c 2
 625 875 l 1
 625 791.666666667 625 708.333333333 625 625 c 1x32
 744 625 l 2
 747 625 750 622 750 619 c 2
 750 256 l 2x31
 750 253 747 250 744 250 c 2
 625 250 l 1x72
 625 131 l 2
 625 128 622 125 619 125 c 0
 456.333333333 125 293.666666667 125 131 125 c 0xa2
 128 125 125 128 125 131 c 2
 125 250 l 1
 6 250 l 2
 3 250 0 253 0 256 c 0
 -0 335.333333333 0 414.666666667 0 494 c 0
 0 497 3 500 6 500 c 0
 85.3333333333 500 164.666666667 500 244 500 c 0x64
 247 500 250 497 250 494 c 2
 250 375 l 1
 333.333333333 375 416.666666667 375 500 375 c 1
 500 458.333333333 500 541.666666667 500 625 c 1xa5
 418.666666667 625 337.333333333 625 256 625 c 0
 253 625 250 628 250 631 c 0
 250 710.333333333 250 789.666666667 250 869 c 0xa2
 250 872 253 875 256 875 c 0
 337.333333333 875 418.666666667 875 500 875 c 1
 500 958.333333333 500 1041.66666667 500 1125 c 1
 416.666666667 1125 333.333333333 1125 250 1125 c 1xad
 250 1006 l 2
 250 1003 247 1000 244 1000 c 0
 164.666666667 1000 85.3333333333 1000 6 1000 c 0x35
EndSplineSet
EndChar

StartChar: B
Encoding: 66 66 100
Width: 875
VWidth: 875
Flags: W
HStem: 125 250<250 500> 625 250<250 500> 1125 250<250 500>
VStem: 0 625<125 250 625 875 1250 1375> 0 250<375 625 875 1125> 500 250<375 625 875 1125>
CounterMasks: 1 e0
LayerCount: 2
Fore
SplineSet
6 125 m 2xf0
 3 125 0 128 0 131 c 0
 -0 543.666666667 0 956.333333333 0 1369 c 0
 0 1372 3 1375 6 1375 c 2
 619 1375 l 2
 622 1375 625 1372 625 1369 c 2
 625 1250 l 1xf0
 744 1250 l 2
 747 1250 750 1247 750 1244 c 2
 750 881 l 2xe4
 750 878 747 875 744 875 c 2
 625 875 l 1
 625 791.666666667 625 708.333333333 625 625 c 1xf0
 744 625 l 2
 747 625 750 622 750 619 c 2
 750 256 l 2xe4
 750 253 747 250 744 250 c 2
 625 250 l 1
 625 131 l 2
 625 128 622 125 619 125 c 2
 6 125 l 2xf0
500 1125 m 1xec
 416.666666667 1125 333.333333333 1125 250 1125 c 1
 250 1041.66666667 250 958.333333333 250 875 c 1
 333.333333333 875 416.666666667 875 500 875 c 1
 500 958.333333333 500 1041.66666667 500 1125 c 1xec
500 625 m 1
 416.666666667 625 333.333333333 625 250 625 c 1
 250 541.666666667 250 458.333333333 250 375 c 1
 333.333333333 375 416.666666667 375 500 375 c 1
 500 458.333333333 500 541.666666667 500 625 c 1
EndSplineSet
EndChar

StartChar: F
Encoding: 70 70 102
Width: 875
VWidth: 875
Flags: W
HStem: 625 250<250 750> 1125 250<250 750>
VStem: 0 250<125 625 875 1125>
LayerCount: 2
Fore
SplineSet
6 125 m 0
 3 125 0 128 0 131 c 0
 -0 543.666666667 0 956.333333333 0 1369 c 0
 0 1372 3 1375 6 1375 c 0
 252 1375 498 1375 744 1375 c 0
 747 1375 750 1372 750 1369 c 0
 750 1289.66666667 750 1210.33333333 750 1131 c 0
 750 1128 747 1125 744 1125 c 0
 579.333333333 1125 414.666666667 1125 250 1125 c 1
 250 1041.66666667 250 958.333333333 250 875 c 1
 414.666666667 875 579.333333333 875 744 875 c 0
 747 875 750 872 750 869 c 0
 750 789.666666667 750 710.333333333 750 631 c 0
 750 628 747 625 744 625 c 0
 579.333333333 625 414.666666667 625 250 625 c 1
 250 460.333333333 250 295.666666667 250 131 c 0
 250 128 247 125 244 125 c 0
 164.666666667 125 85.3333333333 125 6 125 c 0
EndSplineSet
EndChar

StartChar: J
Encoding: 74 74 103
Width: 875
VWidth: 875
Flags: W
HStem: 125 250<250 500> 1125 250<0 500>
VStem: 0 250<375 625> 500 250<375 1125>
LayerCount: 2
Fore
SplineSet
6 1125 m 0
 3 1125 0 1128 0 1131 c 0
 -0 1210.33333333 0 1289.66666667 0 1369 c 0
 0 1372 3 1375 6 1375 c 0
 252 1375 498 1375 744 1375 c 0
 747 1375 750 1372 750 1369 c 2
 750 256 l 2
 750 253 747 250 744 250 c 2
 625 250 l 1
 625 131 l 2
 625 128 622 125 619 125 c 0
 456.333333333 125 293.666666667 125 131 125 c 0
 128 125 125 128 125 131 c 2
 125 250 l 1
 6 250 l 2
 3 250 0 253 0 256 c 2
 0 619 l 2
 0 622 3 625 6 625 c 0
 85.3333333333 625 164.666666667 625 244 625 c 0
 247 625 250 622 250 619 c 0
 250 537.666666667 250 456.333333333 250 375 c 1
 333.333333333 375 416.666666667 375 500 375 c 1
 500 625 500 875 500 1125 c 1
 335.333333333 1125 170.666666667 1125 6 1125 c 0
EndSplineSet
EndChar

StartChar: N
Encoding: 78 78 104
Width: 875
VWidth: 875
Flags: W
HStem: 1355 20G<4.5 245.5 504.5 745.5>
VStem: 0 375<875 1250> 0 250<125 625 1250 1375> 375 375<250 625> 500 250<125 250 875 1375>
LayerCount: 2
Fore
SplineSet
381 250 m 2xc8
 378 250 375 253 375 256 c 2
 375 625 l 1
 250 625 l 1
 250 460.333333333 250 295.666666667 250 131 c 0
 250 128 247 125 244 125 c 0
 164.666666667 125 85.3333333333 125 6 125 c 0
 3 125 0 128 0 131 c 0
 -0 543.666666667 0 956.333333333 0 1369 c 0
 0 1372 3 1375 6 1375 c 0
 85.3333333333 1375 164.666666667 1375 244 1375 c 0
 247 1375 250 1372 250 1369 c 2
 250 1250 l 1xb0
 369 1250 l 2
 372 1250 375 1247 375 1244 c 2
 375 875 l 1
 500 875 l 1
 500 1039.66666667 500 1204.33333333 500 1369 c 0
 500 1372 503 1375 506 1375 c 0
 585.333333333 1375 664.666666667 1375 744 1375 c 0
 747 1375 750 1372 750 1369 c 0
 750 956.333333333 750 543.666666667 750 131 c 0
 750 128 747 125 744 125 c 0
 664.666666667 125 585.333333333 125 506 125 c 0
 503 125 500 128 500 131 c 2
 500 250 l 1
 381 250 l 2xc8
EndSplineSet
EndChar

StartChar: R
Encoding: 82 82 105
Width: 875
VWidth: 875
Flags: W
HStem: 625 250<250 375> 1125 250<250 500>
VStem: 0 250<125 625 875 1125> 375 250<500 625> 500 250<125 375 875 1125>
LayerCount: 2
Fore
SplineSet
381 375 m 2xe8
 378 375 375 378 375 381 c 0
 375 462.333333333 375 543.666666667 375 625 c 1
 250 625 l 1
 250 460.333333333 250 295.666666667 250 131 c 0
 250 128 247 125 244 125 c 0
 164.666666667 125 85.3333333333 125 6 125 c 0
 3 125 0 128 0 131 c 0
 -0 543.666666667 0 956.333333333 0 1369 c 0
 0 1372 3 1375 6 1375 c 2
 619 1375 l 2
 622 1375 625 1372 625 1369 c 2
 625 1250 l 1xf0
 744 1250 l 2
 747 1250 750 1247 750 1244 c 0
 750 1081.33333333 750 918.666666667 750 756 c 0xe8
 750 753 747 750 744 750 c 2
 625 750 l 1
 625 666.666666667 625 583.333333333 625 500 c 1xf0
 744 500 l 2
 747 500 750 497 750 494 c 2
 750 131 l 2
 750 128 747 125 744 125 c 0
 664.666666667 125 585.333333333 125 506 125 c 0
 503 125 500 128 500 131 c 0
 500 212.333333333 500 293.666666667 500 375 c 1
 381 375 l 2xe8
500 1125 m 1xe8
 416.666666667 1125 333.333333333 1125 250 1125 c 1
 250 1041.66666667 250 958.333333333 250 875 c 1
 333.333333333 875 416.666666667 875 500 875 c 1
 500 958.333333333 500 1041.66666667 500 1125 c 1xe8
EndSplineSet
EndChar

StartChar: bracketleft
Encoding: 91 91 106
Width: 875
VWidth: 875
Flags: W
HStem: 125 250<250 375> 1125 250<250 375>
VStem: 0 375<125 375 1125 1375>
LayerCount: 2
Fore
SplineSet
6 125 m 2
 3 125 0 128 0 131 c 0
 -0 543.666666667 0 956.333333333 0 1369 c 0
 0 1372 3 1375 6 1375 c 2
 369 1375 l 2
 372 1375 375 1372 375 1369 c 0
 375 1289.66666667 375 1210.33333333 375 1131 c 0
 375 1128 372 1125 369 1125 c 2
 250 1125 l 1
 250 875 250 625 250 375 c 1
 369 375 l 2
 372 375 375 372 375 369 c 0
 375 289.666666667 375 210.333333333 375 131 c 0
 375 128 372 125 369 125 c 2
 6 125 l 2
EndSplineSet
EndChar

StartChar: V
Encoding: 86 86 107
Width: 875
VWidth: 875
Flags: W
HStem: 125 250<250 500> 1355 20G<4.5 245.5 504.5 745.5>
VStem: 0 250<375 1375> 250 250<125 375> 500 250<375 1375>
LayerCount: 2
Fore
SplineSet
6 375 m 0xe0
 3 375 0 378 0 381 c 0
 -0 710.333333333 0 1039.66666667 0 1369 c 0
 0 1372 3 1375 6 1375 c 0
 85.3333333333 1375 164.666666667 1375 244 1375 c 0
 247 1375 250 1372 250 1369 c 0
 250 1039.66666667 250 710.333333333 250 381 c 0
 250 378 247 375 244 375 c 0
 164.666666667 375 85.3333333333 375 6 375 c 0xe0
506 375 m 0
 503 375 500 378 500 381 c 0
 500 710.333333333 500 1039.66666667 500 1369 c 0
 500 1372 503 1375 506 1375 c 0
 585.333333333 1375 664.666666667 1375 744 1375 c 0
 747 1375 750 1372 750 1369 c 0
 750 1039.66666667 750 710.333333333 750 381 c 0xc8
 750 378 747 375 744 375 c 0
 664.666666667 375 585.333333333 375 506 375 c 0
256 125 m 0
 253 125 250 128 250 131 c 0
 250 210.333333333 250 289.666666667 250 369 c 0
 250 372 253 375 256 375 c 0
 335.333333333 375 414.666666667 375 494 375 c 0
 497 375 500 372 500 369 c 0
 500 289.666666667 500 210.333333333 500 131 c 0xd0
 500 128 497 125 494 125 c 0
 414.666666667 125 335.333333333 125 256 125 c 0
EndSplineSet
EndChar

StartChar: Z
Encoding: 90 90 109
Width: 875
VWidth: 875
Flags: W
HStem: 125 250<250 750> 1125 250<0 500>
VStem: 0 250<375 500> 500 250<1000 1125>
LayerCount: 2
Fore
SplineSet
6 1125 m 0
 3 1125 0 1128 0 1131 c 0
 -0 1210.33333333 0 1289.66666667 0 1369 c 0
 0 1372 3 1375 6 1375 c 0
 252 1375 498 1375 744 1375 c 0
 747 1375 750 1372 750 1369 c 0
 750 1206.33333333 750 1043.66666667 750 881 c 0
 750 878 747 875 744 875 c 2
 625 875 l 1
 625 756 l 2
 625 753 622 750 619 750 c 2
 500 750 l 1
 500 631 l 2
 500 628 497 625 494 625 c 2
 375 625 l 1
 375 506 l 2
 375 503 372 500 369 500 c 2
 250 500 l 1
 250 375 l 1
 414.666666667 375 579.333333333 375 744 375 c 0
 747 375 750 372 750 369 c 0
 750 289.666666667 750 210.333333333 750 131 c 0
 750 128 747 125 744 125 c 0
 498 125 252 125 6 125 c 0
 3 125 0 128 0 131 c 0
 -0 293.666666667 0 456.333333333 0 619 c 0
 0 622 3 625 6 625 c 2
 125 625 l 1
 125 744 l 2
 125 747 128 750 131 750 c 2
 250 750 l 1
 250 869 l 2
 250 872 253 875 256 875 c 2
 375 875 l 1
 375 994 l 2
 375 997 378 1000 381 1000 c 2
 500 1000 l 1
 500 1125 l 1
 335.333333333 1125 170.666666667 1125 6 1125 c 0
EndSplineSet
EndChar

StartChar: b
Encoding: 98 98 111
Width: 875
VWidth: 875
Flags: W
HStem: 125 250<250 500> 625 250<250 500> 1355 20G<4.5 245.5>
VStem: 0 250<375 625 875 1375> 500 250<375 625>
LayerCount: 2
Fore
SplineSet
6 125 m 2
 3 125 0 128 0 131 c 0
 -0 543.666666667 0 956.333333333 0 1369 c 0
 0 1372 3 1375 6 1375 c 0
 85.3333333333 1375 164.666666667 1375 244 1375 c 0
 247 1375 250 1372 250 1369 c 0
 250 1204.33333333 250 1039.66666667 250 875 c 1
 619 875 l 2
 622 875 625 872 625 869 c 2
 625 750 l 1
 744 750 l 2
 747 750 750 747 750 744 c 0
 750 581.333333333 750 418.666666667 750 256 c 0
 750 253 747 250 744 250 c 2
 625 250 l 1
 625 131 l 2
 625 128 622 125 619 125 c 2
 6 125 l 2
500 625 m 1
 416.666666667 625 333.333333333 625 250 625 c 1
 250 541.666666667 250 458.333333333 250 375 c 1
 333.333333333 375 416.666666667 375 500 375 c 1
 500 458.333333333 500 541.666666667 500 625 c 1
EndSplineSet
EndChar

StartChar: f
Encoding: 102 102 113
Width: 875
VWidth: 875
Flags: W
HStem: 625 250<0 125 375 500> 1125 250<375 750>
VStem: 125 125<125 625> 250 125<875 1125>
LayerCount: 2
Fore
SplineSet
6 625 m 2xe0
 3 625 0 628 0 631 c 0
 -0 710.333333333 0 789.666666667 0 869 c 0
 0 872 3 875 6 875 c 0
 87.3333333333 875 168.666666667 875 250 875 c 1
 250 1244 l 2
 250 1247 253 1250 256 1250 c 2
 375 1250 l 1
 375 1369 l 2
 375 1372 378 1375 381 1375 c 2
 744 1375 l 2
 747 1375 750 1372 750 1369 c 0
 750 1289.66666667 750 1210.33333333 750 1131 c 0
 750 1128 747 1125 744 1125 c 2
 375 1125 l 1
 375 1041.66666667 375 958.333333333 375 875 c 1xd0
 494 875 l 2
 497 875 500 872 500 869 c 0
 500 789.666666667 500 710.333333333 500 631 c 0
 500 628 497 625 494 625 c 0
 412.666666667 625 331.333333333 625 250 625 c 1
 250 460.333333333 250 295.666666667 250 131 c 0
 250 128 247 125 244 125 c 2
 131 125 l 2
 128 125 125 128 125 131 c 0
 125 295.666666667 125 460.333333333 125 625 c 1
 6 625 l 2xe0
EndSplineSet
EndChar

StartChar: j
Encoding: 106 106 115
Width: 875
VWidth: 875
Flags: W
HStem: -375 250<250 500> -250 250<0 125> 855 20G<506 745.5>
VStem: 0 250<-125 0> 500 250<-125 875>
LayerCount: 2
Fore
SplineSet
6 -250 m 2x78
 3 -250 0 -247 0 -244 c 0
 -0 -164.666666667 0 -85.3333333333 0 -6 c 0
 0 -3 3 0 6 0 c 0
 85.3333333333 -0 164.666666667 0 244 0 c 0x78
 247 0 250 -3 250 -6 c 2
 250 -125 l 1
 333.333333333 -125 416.666666667 -125 500 -125 c 1xb8
 500 206.333333333 500 537.666666667 500 869 c 0
 500 872 503 875 506 875 c 0
 585.333333333 875 664.666666667 875 744 875 c 0
 747 875 750 872 750 869 c 2
 750 -244 l 2
 750 -247 747 -250 744 -250 c 2
 625 -250 l 1x78
 625 -369 l 2
 625 -372 622 -375 619 -375 c 0
 456.333333333 -375 293.666666667 -375 131 -375 c 0xb8
 128 -375 125 -372 125 -369 c 2
 125 -250 l 1
 6 -250 l 2x78
EndSplineSet
EndChar

StartChar: n
Encoding: 110 110 116
Width: 875
VWidth: 875
Flags: W
HStem: 625 250<250 500>
VStem: 0 250<125 625 875 1000> 500 250<125 625>
LayerCount: 2
Fore
SplineSet
6 125 m 0
 3 125 0 128 0 131 c 2
 0 994 l 2
 0 997 3 1000 6 1000 c 0
 85.3333333333 1000 164.666666667 1000 244 1000 c 0
 247 1000 250 997 250 994 c 2
 250 875 l 1
 619 875 l 2
 622 875 625 872 625 869 c 2
 625 750 l 1
 744 750 l 2
 747 750 750 747 750 744 c 2
 750 131 l 2
 750 128 747 125 744 125 c 0
 664.666666667 125 585.333333333 125 506 125 c 0
 503 125 500 128 500 131 c 0
 500 295.666666667 500 460.333333333 500 625 c 1
 416.666666667 625 333.333333333 625 250 625 c 1
 250 460.333333333 250 295.666666667 250 131 c 0
 250 128 247 125 244 125 c 0
 164.666666667 125 85.3333333333 125 6 125 c 0
EndSplineSet
EndChar

StartChar: r
Encoding: 114 114 117
Width: 875
VWidth: 875
Flags: W
HStem: 500 250<375 500> 625 250<625 750>
VStem: 125 250<125 500 750 875> 500 250<750 875>
LayerCount: 2
Fore
SplineSet
131 125 m 0xb0
 128 125 125 128 125 131 c 0
 125 377 125 623 125 869 c 0
 125 872 128 875 131 875 c 0
 210.333333333 875 289.666666667 875 369 875 c 0x70
 372 875 375 872 375 869 c 2
 375 750 l 1
 500 750 l 1xb0
 500 869 l 2
 500 872 503 875 506 875 c 0
 585.333333333 875 664.666666667 875 744 875 c 0
 747 875 750 872 750 869 c 0
 750 789.666666667 750 710.333333333 750 631 c 0
 750 628 747 625 744 625 c 2
 625 625 l 1x70
 625 506 l 2
 625 503 622 500 619 500 c 0
 537.666666667 500 456.333333333 500 375 500 c 1
 375 131 l 2
 375 128 372 125 369 125 c 0
 289.666666667 125 210.333333333 125 131 125 c 0xb0
EndSplineSet
EndChar

StartChar: nine
Encoding: 57 57 118
Width: 875
VWidth: 875
Flags: W
HStem: 125 250<0 500> 625 250<250 500> 1125 250<250 500>
VStem: 0 250<875 1125> 500 250<375 625 875 1125>
CounterMasks: 1 e0
LayerCount: 2
Fore
SplineSet
6 750 m 2
 3 750 0 753 0 756 c 0
 -0 918.666666667 0 1081.33333333 0 1244 c 0
 0 1247 3 1250 6 1250 c 2
 125 1250 l 1
 125 1369 l 2
 125 1372 128 1375 131 1375 c 2
 744 1375 l 2
 747 1375 750 1372 750 1369 c 0
 750 956.333333333 750 543.666666667 750 131 c 0
 750 128 747 125 744 125 c 0
 498 125 252 125 6 125 c 0
 3 125 0 128 0 131 c 0
 -0 210.333333333 0 289.666666667 0 369 c 0
 0 372 3 375 6 375 c 0
 170.666666667 375 335.333333333 375 500 375 c 1
 500 458.333333333 500 541.666666667 500 625 c 1
 131 625 l 2
 128 625 125 628 125 631 c 2
 125 750 l 1
 6 750 l 2
500 1125 m 1
 416.666666667 1125 333.333333333 1125 250 1125 c 1
 250 1041.66666667 250 958.333333333 250 875 c 1
 333.333333333 875 416.666666667 875 500 875 c 1
 500 958.333333333 500 1041.66666667 500 1125 c 1
EndSplineSet
EndChar

StartChar: v
Encoding: 118 118 119
Width: 875
VWidth: 875
Flags: W
HStem: 125 375<250 500> 855 20G<6 245.5 506 745.5>
VStem: 0 250<500 875> 250 250<125 250> 500 250<500 875>
LayerCount: 2
Fore
SplineSet
6 375 m 2xd0
 3 375 0 378 0 381 c 0
 -0 543.666666667 0 706.333333333 0 869 c 0
 0 872 3 875 6 875 c 0
 85.3333333333 875 164.666666667 875 244 875 c 0
 247 875 250 872 250 869 c 2
 250 500 l 1
 333.333333333 500 416.666666667 500 500 500 c 1
 500 869 l 2
 500 872 503 875 506 875 c 0
 585.333333333 875 664.666666667 875 744 875 c 0
 747 875 750 872 750 869 c 0
 750 706.333333333 750 543.666666667 750 381 c 0xe8
 750 378 747 375 744 375 c 2
 625 375 l 1
 625 256 l 2
 625 253 622 250 619 250 c 2
 500 250 l 1
 500 131 l 2
 500 128 497 125 494 125 c 0
 414.666666667 125 335.333333333 125 256 125 c 0
 253 125 250 128 250 131 c 2
 250 250 l 1
 131 250 l 2
 128 250 125 253 125 256 c 2
 125 375 l 1
 6 375 l 2xd0
EndSplineSet
EndChar

StartChar: braceright
Encoding: 125 125 123
Width: 875
VWidth: 875
Flags: W
HStem: 125 250<0 250> 625 250<500 750> 1125 250<0 250>
VStem: 0 500<125 375 1125 1375> 250 250<375 625 875 1125> 375 375<625 875>
CounterMasks: 1 e0
LayerCount: 2
Fore
SplineSet
6 1125 m 0xe8
 3 1125 0 1128 0 1131 c 0
 -0 1210.33333333 0 1289.66666667 0 1369 c 0
 0 1372 3 1375 6 1375 c 0
 168.666666667 1375 331.333333333 1375 494 1375 c 0
 497 1375 500 1372 500 1369 c 0xf0
 500 1204.33333333 500 1039.66666667 500 875 c 1xe8
 581.333333333 875 662.666666667 875 744 875 c 0
 747 875 750 872 750 869 c 0
 750 789.666666667 750 710.333333333 750 631 c 0xe4
 750 628 747 625 744 625 c 0
 662.666666667 625 581.333333333 625 500 625 c 1xe8
 500 460.333333333 500 295.666666667 500 131 c 0
 500 128 497 125 494 125 c 0
 331.333333333 125 168.666666667 125 6 125 c 0
 3 125 0 128 0 131 c 0
 -0 210.333333333 0 289.666666667 0 369 c 0xf0
 0 372 3 375 6 375 c 0
 87.3333333333 375 168.666666667 375 250 375 c 1
 250 456.333333333 250 537.666666667 250 619 c 0xe8
 250 622 253 625 256 625 c 2
 375 625 l 1
 375 708.333333333 375 791.666666667 375 875 c 1xe4
 256 875 l 2
 253 875 250 878 250 881 c 0
 250 962.333333333 250 1043.66666667 250 1125 c 1
 168.666666667 1125 87.3333333333 1125 6 1125 c 0xe8
EndSplineSet
EndChar

StartChar: seven
Encoding: 55 55 124
Width: 875
VWidth: 875
Flags: W
HStem: 875 21G<6 245.5> 1125 250<250 500>
VStem: 0 250<875 1125> 500 250<125 1125>
LayerCount: 2
Fore
SplineSet
6 875 m 0
 3 875 0 878 0 881 c 0
 -0 1043.66666667 0 1206.33333333 0 1369 c 0
 0 1372 3 1375 6 1375 c 0
 252 1375 498 1375 744 1375 c 0
 747 1375 750 1372 750 1369 c 0
 750 956.333333333 750 543.666666667 750 131 c 0
 750 128 747 125 744 125 c 0
 664.666666667 125 585.333333333 125 506 125 c 0
 503 125 500 128 500 131 c 0
 500 462.333333333 500 793.666666667 500 1125 c 1
 416.666666667 1125 333.333333333 1125 250 1125 c 1
 250 1043.66666667 250 962.333333333 250 881 c 0
 250 878 247 875 244 875 c 0
 164.666666667 875 85.3333333333 875 6 875 c 0
EndSplineSet
EndChar

StartChar: semicolon
Encoding: 59 59 126
Width: 875
VWidth: 875
Flags: W
HStem: 125 125<250 375> 250 250<375 500> 625 250<250 500>
VStem: 250 125<125 250> 375 125<250 500>
LayerCount: 2
Fore
SplineSet
256 625 m 0x28
 253 625 250 628 250 631 c 0
 250 710.333333333 250 789.666666667 250 869 c 0x30
 250 872 253 875 256 875 c 0
 335.333333333 875 414.666666667 875 494 875 c 0
 497 875 500 872 500 869 c 0
 500 789.666666667 500 710.333333333 500 631 c 0
 500 628 497 625 494 625 c 0
 414.666666667 625 335.333333333 625 256 625 c 0x28
381 250 m 2x68
 378 250 375 253 375 256 c 0
 375 335.333333333 375 414.666666667 375 494 c 0
 375 497 378 500 381 500 c 2
 494 500 l 2
 497 500 500 497 500 494 c 0
 500 414.666666667 500 335.333333333 500 256 c 0
 500 253 497 250 494 250 c 2
 381 250 l 2x68
256 125 m 2xb0
 253 125 250 128 250 131 c 2
 250 244 l 2
 250 247 253 250 256 250 c 2
 369 250 l 2
 372 250 375 247 375 244 c 2
 375 131 l 2
 375 128 372 125 369 125 c 2
 256 125 l 2xb0
EndSplineSet
EndChar

StartChar: currency
Encoding: 164 164 128
Width: 875
VWidth: 875
Flags: W
HStem: 250 125<125 250 375 625> 375 250<625 750> 375 125<0 125> 625 125<500 625> 750 125<125 250> 875 250<0 125> 1000 125<625 750> 1125 125<125 375 500 625> 1355 20G<379.5 495.5>
VStem: 0 125<375 500 875 1125> 250 125<125 250 375 750> 375 125<875 1125 1250 1375> 500 125<625 750> 625 125<375 625 1000 1125>
LayerCount: 2
Fore
SplineSet
131 1125 m 0x01d0
 128 1125 125 1128 125 1131 c 2
 125 1244 l 2
 125 1247 128 1250 131 1250 c 0
 212.333333333 1250 293.666666667 1250 375 1250 c 1
 375 1369 l 2
 375 1372 378 1375 381 1375 c 2
 494 1375 l 2
 497 1375 500 1372 500 1369 c 2
 500 1250 l 1
 619 1250 l 2
 622 1250 625 1247 625 1244 c 2
 625 1131 l 2
 625 1128 622 1125 619 1125 c 2
 500 1125 l 1x01d4
 500 756 l 2x01c8
 500 753 497 750 494 750 c 2
 375 750 l 1
 375 375 l 1
 456.333333333 375 537.666666667 375 619 375 c 0
 622 375 625 372 625 369 c 2
 625 256 l 2
 625 253 622 250 619 250 c 0
 537.666666667 250 456.333333333 250 375 250 c 1
 375 131 l 2
 375 128 372 125 369 125 c 2
 256 125 l 2
 253 125 250 128 250 131 c 2
 250 250 l 1
 131 250 l 2
 128 250 125 253 125 256 c 2
 125 369 l 2
 125 372 128 375 131 375 c 2
 250 375 l 1
 250 750 l 1
 131 750 l 2
 128 750 125 753 125 756 c 2
 125 869 l 2
 125 872 128 875 131 875 c 0x89e4
 212.333333333 875 293.666666667 875 375 875 c 1x04d0
 375 958.333333333 375 1041.66666667 375 1125 c 1
 293.666666667 1125 212.333333333 1125 131 1125 c 0x01d0
631 1000 m 2x02c4
 628 1000 625 1003 625 1006 c 2
 625 1119 l 2
 625 1122 628 1125 631 1125 c 2
 744 1125 l 2
 747 1125 750 1122 750 1119 c 2
 750 1006 l 2
 750 1003 747 1000 744 1000 c 2
 631 1000 l 2x02c4
6 875 m 2x04c0
 3 875 0 878 0 881 c 0
 -0 960.333333333 0 1039.66666667 0 1119 c 0
 0 1122 3 1125 6 1125 c 2
 119 1125 l 2
 122 1125 125 1122 125 1119 c 0
 125 1039.66666667 125 960.333333333 125 881 c 0
 125 878 122 875 119 875 c 2
 6 875 l 2x04c0
506 625 m 2x10c8
 503 625 500 628 500 631 c 2
 500 744 l 2
 500 747 503 750 506 750 c 2
 619 750 l 2
 622 750 625 747 625 744 c 2
 625 631 l 2
 625 628 622 625 619 625 c 2
 506 625 l 2x10c8
6 375 m 2x20c0
 3 375 0 378 0 381 c 2
 0 494 l 2
 0 497 3 500 6 500 c 2
 119 500 l 2
 122 500 125 497 125 494 c 2
 125 381 l 2
 125 378 122 375 119 375 c 2
 6 375 l 2x20c0
631 375 m 2x40c4
 628 375 625 378 625 381 c 0
 625 460.333333333 625 539.666666667 625 619 c 0
 625 622 628 625 631 625 c 2
 744 625 l 2
 747 625 750 622 750 619 c 0
 750 539.666666667 750 460.333333333 750 381 c 0
 750 378 747 375 744 375 c 2
 631 375 l 2x40c4
EndSplineSet
EndChar

StartChar: six
Encoding: 54 54 135
Width: 875
VWidth: 875
Flags: W
HStem: 125 250<250 500> 625 250<250 500> 1125 250<250 750>
VStem: 0 250<375 625 875 1125> 500 250<375 625>
CounterMasks: 1 e0
LayerCount: 2
Fore
SplineSet
6 125 m 2
 3 125 0 128 0 131 c 0
 -0 543.666666667 0 956.333333333 0 1369 c 0
 0 1372 3 1375 6 1375 c 0
 252 1375 498 1375 744 1375 c 0
 747 1375 750 1372 750 1369 c 0
 750 1289.66666667 750 1210.33333333 750 1131 c 0
 750 1128 747 1125 744 1125 c 0
 579.333333333 1125 414.666666667 1125 250 1125 c 1
 250 1041.66666667 250 958.333333333 250 875 c 1
 619 875 l 2
 622 875 625 872 625 869 c 2
 625 750 l 1
 744 750 l 2
 747 750 750 747 750 744 c 0
 750 581.333333333 750 418.666666667 750 256 c 0
 750 253 747 250 744 250 c 2
 625 250 l 1
 625 131 l 2
 625 128 622 125 619 125 c 2
 6 125 l 2
500 625 m 1
 416.666666667 625 333.333333333 625 250 625 c 1
 250 541.666666667 250 458.333333333 250 375 c 1
 333.333333333 375 416.666666667 375 500 375 c 1
 500 458.333333333 500 541.666666667 500 625 c 1
EndSplineSet
EndChar

StartChar: percent
Encoding: 37 37 136
Width: 875
VWidth: 875
Flags: W
HStem: 125 250<0 125> 250 250<500 750> 1000 250<0 250> 1125 250<625 750>
VStem: 0 250<125 375 1000 1250> 125 250<375 625> 250 250<625 875> 375 250<875 1125> 500 250<250 500 1125 1375>
LayerCount: 2
Fore
SplineSet
6 1000 m 0x28
 3 1000 0 1003 0 1006 c 0
 -0 1085.33333333 0 1164.66666667 0 1244 c 0
 0 1247 3 1250 6 1250 c 0
 85.3333333333 1250 164.666666667 1250 244 1250 c 0
 247 1250 250 1247 250 1244 c 0
 250 1164.66666667 250 1085.33333333 250 1006 c 0
 250 1003 247 1000 244 1000 c 0
 164.666666667 1000 85.3333333333 1000 6 1000 c 0x28
506 250 m 0x4080
 503 250 500 253 500 256 c 0
 500 335.333333333 500 414.666666667 500 494 c 0
 500 497 503 500 506 500 c 0
 585.333333333 500 664.666666667 500 744 500 c 0
 747 500 750 497 750 494 c 0
 750 414.666666667 750 335.333333333 750 256 c 0
 750 253 747 250 744 250 c 0
 664.666666667 250 585.333333333 250 506 250 c 0x4080
6 125 m 0x98
 3 125 0 128 0 131 c 0
 -0 210.333333333 0 289.666666667 0 369 c 0x98
 0 372 3 375 6 375 c 2
 125 375 l 1
 125 456.333333333 125 537.666666667 125 619 c 0x94
 125 622 128 625 131 625 c 2
 250 625 l 1
 250 706.333333333 250 787.666666667 250 869 c 0x92
 250 872 253 875 256 875 c 2
 375 875 l 1
 375 956.333333333 375 1037.66666667 375 1119 c 0x91
 375 1122 378 1125 381 1125 c 2
 500 1125 l 1
 500 1206.33333333 500 1287.66666667 500 1369 c 0
 500 1372 503 1375 506 1375 c 0
 585.333333333 1375 664.666666667 1375 744 1375 c 0
 747 1375 750 1372 750 1369 c 0
 750 1289.66666667 750 1210.33333333 750 1131 c 0x9080
 750 1128 747 1125 744 1125 c 2
 625 1125 l 1
 625 1043.66666667 625 962.333333333 625 881 c 0x91
 625 878 622 875 619 875 c 2
 500 875 l 1x9080
 500 793.666666667 500 712.333333333 500 631 c 0x92
 500 628 497 625 494 625 c 2
 375 625 l 1x91
 375 543.666666667 375 462.333333333 375 381 c 0x94
 375 378 372 375 369 375 c 2
 250 375 l 1x92
 250 293.666666667 250 212.333333333 250 131 c 0
 250 128 247 125 244 125 c 0
 164.666666667 125 85.3333333333 125 6 125 c 0x98
EndSplineSet
EndChar

StartChar: s
Encoding: 115 115 137
Width: 875
VWidth: 875
Flags: W
HStem: 125 125<0 500> 250 250<625 750> 375 125<250 500> 500 250<0 125> 625 250<250 750>
VStem: 0 250<500 625> 500 250<250 375>
LayerCount: 2
Fore
SplineSet
6 500 m 2x16
 3 500 0 503 0 506 c 0
 -0 585.333333333 0 664.666666667 0 744 c 0
 0 747 3 750 6 750 c 2
 125 750 l 1x16
 125 869 l 2
 125 872 128 875 131 875 c 2
 744 875 l 2
 747 875 750 872 750 869 c 0
 750 789.666666667 750 710.333333333 750 631 c 0
 750 628 747 625 744 625 c 0
 579.333333333 625 414.666666667 625 250 625 c 1
 250 500 l 1x2e
 414.666666667 500 579.333333333 500 744 500 c 0
 747 500 750 497 750 494 c 0
 750 414.666666667 750 335.333333333 750 256 c 0
 750 253 747 250 744 250 c 2
 625 250 l 1x46
 625 131 l 2
 625 128 622 125 619 125 c 2
 6 125 l 2
 3 125 0 128 0 131 c 2
 0 244 l 2
 0 247 3 250 6 250 c 0
 170.666666667 250 335.333333333 250 500 250 c 1
 500 375 l 1
 131 375 l 2xa6
 128 375 125 378 125 381 c 2
 125 500 l 1
 6 500 l 2x16
EndSplineSet
EndChar

StartChar: bracketright
Encoding: 93 93 140
Width: 875
VWidth: 875
Flags: W
HStem: 125 250<375 500> 1125 250<375 500>
VStem: 375 375<125 375 1125 1375>
LayerCount: 2
Fore
SplineSet
381 1125 m 2
 378 1125 375 1128 375 1131 c 0
 375 1210.33333333 375 1289.66666667 375 1369 c 0
 375 1372 378 1375 381 1375 c 2
 744 1375 l 2
 747 1375 750 1372 750 1369 c 0
 750 956.333333333 750 543.666666667 750 131 c 0
 750 128 747 125 744 125 c 2
 381 125 l 2
 378 125 375 128 375 131 c 0
 375 210.333333333 375 289.666666667 375 369 c 0
 375 372 378 375 381 375 c 2
 500 375 l 1
 500 625 500 875 500 1125 c 1
 381 1125 l 2
EndSplineSet
EndChar

StartChar: A
Encoding: 65 65 141
Width: 875
VWidth: 875
Flags: W
HStem: 625 250<250 500> 1125 250<250 500>
VStem: 0 250<125 625 875 1125> 500 250<125 625 875 1125>
LayerCount: 2
Fore
SplineSet
6 125 m 0
 3 125 0 128 0 131 c 2
 0 1244 l 2
 0 1247 3 1250 6 1250 c 2
 125 1250 l 1
 125 1369 l 2
 125 1372 128 1375 131 1375 c 0
 293.666666667 1375 456.333333333 1375 619 1375 c 0
 622 1375 625 1372 625 1369 c 2
 625 1250 l 1
 744 1250 l 2
 747 1250 750 1247 750 1244 c 2
 750 131 l 2
 750 128 747 125 744 125 c 0
 664.666666667 125 585.333333333 125 506 125 c 0
 503 125 500 128 500 131 c 0
 500 295.666666667 500 460.333333333 500 625 c 1
 416.666666667 625 333.333333333 625 250 625 c 1
 250 460.333333333 250 295.666666667 250 131 c 0
 250 128 247 125 244 125 c 0
 164.666666667 125 85.3333333333 125 6 125 c 0
500 1125 m 1
 416.666666667 1125 333.333333333 1125 250 1125 c 1
 250 1041.66666667 250 958.333333333 250 875 c 1
 333.333333333 875 416.666666667 875 500 875 c 1
 500 958.333333333 500 1041.66666667 500 1125 c 1
EndSplineSet
EndChar

StartChar: quotedbl
Encoding: 34 34 142
Width: 875
VWidth: 875
Flags: W
HStem: 1000 375<0 250 375 625>
VStem: 0 250<1000 1375> 375 250<1000 1375>
LayerCount: 2
Fore
SplineSet
6 1000 m 0
 3 1000 0 1003 0 1006 c 2
 0 1369 l 2
 0 1372 3 1375 6 1375 c 0
 85.3333333333 1375 164.666666667 1375 244 1375 c 0
 247 1375 250 1372 250 1369 c 2
 250 1006 l 2
 250 1003 247 1000 244 1000 c 0
 164.666666667 1000 85.3333333333 1000 6 1000 c 0
381 1000 m 0
 378 1000 375 1003 375 1006 c 2
 375 1369 l 2
 375 1372 378 1375 381 1375 c 0
 460.333333333 1375 539.666666667 1375 619 1375 c 0
 622 1375 625 1372 625 1369 c 2
 625 1006 l 2
 625 1003 622 1000 619 1000 c 0
 539.666666667 1000 460.333333333 1000 381 1000 c 0
EndSplineSet
EndChar

StartChar: I
Encoding: 73 73 145
Width: 875
VWidth: 875
Flags: W
HStem: 125 21G<256 495.5> 1125 250<250 500>
VStem: 250 250<125 1000 1125 1375>
LayerCount: 2
Fore
SplineSet
256 1125 m 0
 253 1125 250 1128 250 1131 c 0
 250 1210.33333333 250 1289.66666667 250 1369 c 0
 250 1372 253 1375 256 1375 c 0
 335.333333333 1375 414.666666667 1375 494 1375 c 0
 497 1375 500 1372 500 1369 c 0
 500 1289.66666667 500 1210.33333333 500 1131 c 0
 500 1128 497 1125 494 1125 c 0
 414.666666667 1125 335.333333333 1125 256 1125 c 0
256 125 m 0
 253 125 250 128 250 131 c 2
 250 994 l 2
 250 997 253 1000 256 1000 c 0
 335.333333333 1000 414.666666667 1000 494 1000 c 0
 497 1000 500 997 500 994 c 2
 500 131 l 2
 500 128 497 125 494 125 c 0
 414.666666667 125 335.333333333 125 256 125 c 0
EndSplineSet
EndChar

StartChar: asterisk
Encoding: 42 42 147
Width: 875
VWidth: 875
Flags: W
HStem: 500 125<0 125 625 750> 750 250<0 125 625 750> 1125 125<0 125 625 750>
VStem: 0 125<500 625 1125 1250> 250 250<500 625 1125 1250> 625 125<500 625 1125 1250>
CounterMasks: 1 fc
LayerCount: 2
Fore
SplineSet
6 1125 m 2
 3 1125 0 1128 0 1131 c 2
 0 1244 l 2
 0 1247 3 1250 6 1250 c 2
 119 1250 l 2
 122 1250 125 1247 125 1244 c 2
 125 1131 l 2
 125 1128 122 1125 119 1125 c 2
 6 1125 l 2
631 1125 m 2
 628 1125 625 1128 625 1131 c 2
 625 1244 l 2
 625 1247 628 1250 631 1250 c 2
 744 1250 l 2
 747 1250 750 1247 750 1244 c 2
 750 1131 l 2
 750 1128 747 1125 744 1125 c 2
 631 1125 l 2
6 750 m 2
 3 750 0 753 0 756 c 0
 -0 835.333333333 0 914.666666667 0 994 c 0
 0 997 3 1000 6 1000 c 2
 125 1000 l 1
 125 1119 l 2
 125 1122 128 1125 131 1125 c 2
 250 1125 l 1
 250 1244 l 2
 250 1247 253 1250 256 1250 c 0
 335.333333333 1250 414.666666667 1250 494 1250 c 0
 497 1250 500 1247 500 1244 c 2
 500 1125 l 1
 619 1125 l 2
 622 1125 625 1122 625 1119 c 2
 625 1000 l 1
 744 1000 l 2
 747 1000 750 997 750 994 c 0
 750 914.666666667 750 835.333333333 750 756 c 0
 750 753 747 750 744 750 c 2
 625 750 l 1
 625 631 l 2
 625 628 622 625 619 625 c 2
 500 625 l 1
 500 506 l 2
 500 503 497 500 494 500 c 0
 414.666666667 500 335.333333333 500 256 500 c 0
 253 500 250 503 250 506 c 2
 250 625 l 1
 131 625 l 2
 128 625 125 628 125 631 c 2
 125 750 l 1
 6 750 l 2
6 500 m 2
 3 500 0 503 0 506 c 2
 0 619 l 2
 0 622 3 625 6 625 c 2
 119 625 l 2
 122 625 125 622 125 619 c 2
 125 506 l 2
 125 503 122 500 119 500 c 2
 6 500 l 2
631 500 m 2
 628 500 625 503 625 506 c 2
 625 619 l 2
 625 622 628 625 631 625 c 2
 744 625 l 2
 747 625 750 622 750 619 c 2
 750 506 l 2
 750 503 747 500 744 500 c 2
 631 500 l 2
EndSplineSet
EndChar

StartChar: Q
Encoding: 81 81 149
Width: 875
VWidth: 875
Flags: W
HStem: 125 21G<381 620.5> 1125 250<250 500>
VStem: 0 250<625 1125> 125 500<250 375 1250 1375> 375 250<125 250> 500 250<500 1125>
LayerCount: 2
Fore
SplineSet
6 375 m 2xd0
 3 375 0 378 0 381 c 2
 0 1244 l 2xe0
 0 1247 3 1250 6 1250 c 2
 125 1250 l 1
 125 1369 l 2
 125 1372 128 1375 131 1375 c 0
 293.666666667 1375 456.333333333 1375 619 1375 c 0
 622 1375 625 1372 625 1369 c 2
 625 1250 l 1xd0
 744 1250 l 2
 747 1250 750 1247 750 1244 c 2
 750 381 l 2xc4
 750 378 747 375 744 375 c 2
 625 375 l 1xd0
 625 293.666666667 625 212.333333333 625 131 c 0
 625 128 622 125 619 125 c 0
 539.666666667 125 460.333333333 125 381 125 c 0
 378 125 375 128 375 131 c 2
 375 250 l 1xc8
 293.666666667 250 212.333333333 250 131 250 c 0
 128 250 125 253 125 256 c 2
 125 375 l 1
 6 375 l 2xd0
500 1125 m 1xc4
 416.666666667 1125 333.333333333 1125 250 1125 c 1
 250 958.333333333 250 791.666666667 250 625 c 1
 369 625 l 2
 372 625 375 622 375 619 c 2
 375 500 l 1xe8
 500 500 l 1
 500 1125 l 1xc4
EndSplineSet
EndChar

StartChar: eight
Encoding: 56 56 150
Width: 875
VWidth: 875
Flags: W
HStem: 125 250<250 500> 625 250<250 500> 1125 250<250 500>
VStem: 0 250<375 625 875 1125> 500 250<375 625 875 1125>
CounterMasks: 1 e0
LayerCount: 2
Fore
SplineSet
6 250 m 2
 3 250 0 253 0 256 c 0
 -0 585.333333333 0 914.666666667 0 1244 c 0
 0 1247 3 1250 6 1250 c 2
 125 1250 l 1
 125 1369 l 2
 125 1372 128 1375 131 1375 c 0
 293.666666667 1375 456.333333333 1375 619 1375 c 0
 622 1375 625 1372 625 1369 c 2
 625 1250 l 1
 744 1250 l 2
 747 1250 750 1247 750 1244 c 0
 750 914.666666667 750 585.333333333 750 256 c 0
 750 253 747 250 744 250 c 2
 625 250 l 1
 625 131 l 2
 625 128 622 125 619 125 c 0
 456.333333333 125 293.666666667 125 131 125 c 0
 128 125 125 128 125 131 c 2
 125 250 l 1
 6 250 l 2
500 1125 m 1
 416.666666667 1125 333.333333333 1125 250 1125 c 1
 250 1041.66666667 250 958.333333333 250 875 c 1
 333.333333333 875 416.666666667 875 500 875 c 1
 500 958.333333333 500 1041.66666667 500 1125 c 1
500 625 m 1
 416.666666667 625 333.333333333 625 250 625 c 1
 250 541.666666667 250 458.333333333 250 375 c 1
 333.333333333 375 416.666666667 375 500 375 c 1
 500 458.333333333 500 541.666666667 500 625 c 1
EndSplineSet
EndChar

StartChar: two
Encoding: 50 50 151
Width: 875
VWidth: 875
Flags: W
HStem: 125 250<250 750> 625 125<250 375> 1000 250<0 125> 1125 250<250 500>
VStem: 0 250<375 625 1000 1125> 500 250<875 1125>
LayerCount: 2
Fore
SplineSet
6 1000 m 0xec
 3 1000 0 1003 0 1006 c 0
 -0 1085.33333333 0 1164.66666667 0 1244 c 0
 0 1247 3 1250 6 1250 c 2
 125 1250 l 1xec
 125 1369 l 2
 125 1372 128 1375 131 1375 c 0
 293.666666667 1375 456.333333333 1375 619 1375 c 0xdc
 622 1375 625 1372 625 1369 c 2
 625 1250 l 1
 744 1250 l 2xec
 747 1250 750 1247 750 1244 c 0
 750 1081.33333333 750 918.666666667 750 756 c 0
 750 753 747 750 744 750 c 2
 625 750 l 1
 625 631 l 2
 625 628 622 625 619 625 c 2
 250 625 l 1
 250 541.666666667 250 458.333333333 250 375 c 1
 414.666666667 375 579.333333333 375 744 375 c 0
 747 375 750 372 750 369 c 0
 750 289.666666667 750 210.333333333 750 131 c 0
 750 128 747 125 744 125 c 0
 498 125 252 125 6 125 c 0
 3 125 0 128 0 131 c 0
 -0 293.666666667 0 456.333333333 0 619 c 0
 0 622 3 625 6 625 c 2
 125 625 l 1
 125 744 l 2
 125 747 128 750 131 750 c 0
 212.333333333 750 293.666666667 750 375 750 c 1
 375 869 l 2
 375 872 378 875 381 875 c 2
 500 875 l 1
 500 958.333333333 500 1041.66666667 500 1125 c 1
 416.666666667 1125 333.333333333 1125 250 1125 c 1xdc
 250 1006 l 2
 250 1003 247 1000 244 1000 c 0
 164.666666667 1000 85.3333333333 1000 6 1000 c 0xec
EndSplineSet
EndChar

StartChar: Y
Encoding: 89 89 153
Width: 875
VWidth: 875
Flags: W
HStem: 125 21G<256 495.5> 125 21G<256 495.5> 1000 375<0 125 625 750>
VStem: 0 250<1000 1375> 250 250<125 750> 500 250<1000 1375>
LayerCount: 2
Fore
SplineSet
6 1000 m 2xa8
 3 1000 0 1003 0 1006 c 2
 0 1369 l 2
 0 1372 3 1375 6 1375 c 0
 85.3333333333 1375 164.666666667 1375 244 1375 c 0
 247 1375 250 1372 250 1369 c 2
 250 1000 l 1
 333.333333333 1000 416.666666667 1000 500 1000 c 1
 500 1369 l 2
 500 1372 503 1375 506 1375 c 0
 585.333333333 1375 664.666666667 1375 744 1375 c 0
 747 1375 750 1372 750 1369 c 2
 750 1006 l 2xb4
 750 1003 747 1000 744 1000 c 2
 625 1000 l 1
 625 918.666666667 625 837.333333333 625 756 c 0
 625 753 622 750 619 750 c 2
 500 750 l 1
 500 131 l 2
 500 128 497 125 494 125 c 0
 414.666666667 125 335.333333333 125 256 125 c 0
 253 125 250 128 250 131 c 2
 250 750 l 1
 131 750 l 2
 128 750 125 753 125 756 c 0
 125 837.333333333 125 918.666666667 125 1000 c 1
 6 1000 l 2xa8
EndSplineSet
EndChar

StartChar: comma
Encoding: 44 44 155
Width: 875
VWidth: 875
Flags: W
HStem: 125 125<250 375> 250 250<375 500>
VStem: 250 125<125 250> 375 125<250 500>
LayerCount: 2
Fore
SplineSet
381 250 m 2x50
 378 250 375 253 375 256 c 0
 375 335.333333333 375 414.666666667 375 494 c 0
 375 497 378 500 381 500 c 2
 494 500 l 2
 497 500 500 497 500 494 c 0
 500 414.666666667 500 335.333333333 500 256 c 0
 500 253 497 250 494 250 c 2
 381 250 l 2x50
256 125 m 2xa0
 253 125 250 128 250 131 c 2
 250 244 l 2
 250 247 253 250 256 250 c 2
 369 250 l 2
 372 250 375 247 375 244 c 2
 375 131 l 2
 375 128 372 125 369 125 c 2
 256 125 l 2xa0
EndSplineSet
EndChar

StartChar: a
Encoding: 97 97 159
Width: 875
VWidth: 875
Flags: W
HStem: 125 250<250 500> 375 250<0 125> 625 250<250 500>
VStem: 0 250<375 625> 125 625<125 375 625 875> 500 250<375 625>
LayerCount: 2
Fore
SplineSet
6 375 m 2x48
 3 375 0 378 0 381 c 0
 -0 460.333333333 0 539.666666667 0 619 c 0x50
 0 622 3 625 6 625 c 2
 125 625 l 1x48
 125 706.333333333 125 787.666666667 125 869 c 0
 125 872 128 875 131 875 c 2
 744 875 l 2
 747 875 750 872 750 869 c 0
 750 623 750 377 750 131 c 0
 750 128 747 125 744 125 c 2
 131 125 l 2xa8
 128 125 125 128 125 131 c 0
 125 212.333333333 125 293.666666667 125 375 c 1
 6 375 l 2x48
500 625 m 1xb4
 416.666666667 625 333.333333333 625 250 625 c 1
 250 541.666666667 250 458.333333333 250 375 c 1
 333.333333333 375 416.666666667 375 500 375 c 1
 500 458.333333333 500 541.666666667 500 625 c 1xb4
EndSplineSet
EndChar

StartChar: e
Encoding: 101 101 160
Width: 875
VWidth: 875
Flags: W
HStem: 125 125<250 750> 375 250<250 500> 875 250<250 500>
VStem: 0 250<250 375 625 875> 500 250<625 875>
LayerCount: 2
Fore
SplineSet
6 125 m 0
 3 125 0 128 0 131 c 0
 -0 377 0 623 0 869 c 0
 0 872 3 875 6 875 c 2
 125 875 l 1
 125 956.333333333 125 1037.66666667 125 1119 c 0
 125 1122 128 1125 131 1125 c 2
 744 1125 l 2
 747 1125 750 1122 750 1119 c 0
 750 956.333333333 750 793.666666667 750 631 c 0
 750 628 747 625 744 625 c 2
 625 625 l 1
 625 506 l 2
 625 503 622 500 619 500 c 2
 500 500 l 1
 500 381 l 2
 500 378 497 375 494 375 c 0
 412.666666667 375 331.333333333 375 250 375 c 1
 250 250 l 1
 414.666666667 250 579.333333333 250 744 250 c 0
 747 250 750 247 750 244 c 2
 750 131 l 2
 750 128 747 125 744 125 c 0
 498 125 252 125 6 125 c 0
500 875 m 1
 416.666666667 875 333.333333333 875 250 875 c 1
 250 791.666666667 250 708.333333333 250 625 c 1
 333.333333333 625 416.666666667 625 500 625 c 1
 500 708.333333333 500 791.666666667 500 875 c 1
EndSplineSet
EndChar

StartChar: i
Encoding: 105 105 161
Width: 875
VWidth: 875
Flags: W
HStem: 125 21G<256 495.5> 125 21G<256 495.5> 875 250<250 500>
VStem: 250 250<125 750 875 1125>
LayerCount: 2
Fore
SplineSet
256 875 m 0x30
 253 875 250 878 250 881 c 0
 250 960.333333333 250 1039.66666667 250 1119 c 0
 250 1122 253 1125 256 1125 c 0
 335.333333333 1125 414.666666667 1125 494 1125 c 0
 497 1125 500 1122 500 1119 c 0
 500 1039.66666667 500 960.333333333 500 881 c 0
 500 878 497 875 494 875 c 0
 414.666666667 875 335.333333333 875 256 875 c 0x30
256 125 m 0xb0
 253 125 250 128 250 131 c 2
 250 744 l 2
 250 747 253 750 256 750 c 0
 335.333333333 750 414.666666667 750 494 750 c 0
 497 750 500 747 500 744 c 2
 500 131 l 2
 500 128 497 125 494 125 c 0
 414.666666667 125 335.333333333 125 256 125 c 0xb0
EndSplineSet
EndChar

StartChar: m
Encoding: 109 109 163
Width: 875
VWidth: 875
Flags: W
HStem: 125 21G<4.5 120.5 379.5 495.5 629.5 745.5> 125 21G<4.5 120.5 379.5 495.5 629.5 745.5> 625 125<125 250 500 625> 855 20G<4.5 120.5>
VStem: 0 125<125 625 750 875> 375 125<125 500> 500 250<625 750> 625 125<125 625>
LayerCount: 2
Fore
SplineSet
506 625 m 2xb9
 503 625 500 628 500 631 c 2
 500 744 l 2
 500 747 503 750 506 750 c 0
 585.333333333 750 664.666666667 750 744 750 c 0
 747 750 750 747 750 744 c 2xba
 750 131 l 2
 750 128 747 125 744 125 c 2
 631 125 l 2
 628 125 625 128 625 131 c 0
 625 295.666666667 625 460.333333333 625 625 c 1
 506 625 l 2xb9
256 500 m 2
 253 500 250 503 250 506 c 2
 250 625 l 1
 125 625 l 1
 125 460.333333333 125 295.666666667 125 131 c 0
 125 128 122 125 119 125 c 2
 6 125 l 2
 3 125 0 128 0 131 c 0
 -0 377 0 623 0 869 c 0
 0 872 3 875 6 875 c 2
 119 875 l 2
 122 875 125 872 125 869 c 2
 125 750 l 1
 206.333333333 750 287.666666667 750 369 750 c 0
 372 750 375 747 375 744 c 2
 375 625 l 1xbc
 494 625 l 2
 497 625 500 622 500 619 c 0xba
 500 456.333333333 500 293.666666667 500 131 c 0
 500 128 497 125 494 125 c 2
 381 125 l 2
 378 125 375 128 375 131 c 2
 375 500 l 1xbc
 256 500 l 2
EndSplineSet
EndChar

StartChar: q
Encoding: 113 113 164
Width: 875
VWidth: 875
Flags: W
HStem: 125 250<250 500> 625 250<250 500>
VStem: 0 250<375 625> 500 250<-375 125 375 625>
LayerCount: 2
Fore
SplineSet
6 250 m 2
 3 250 0 253 0 256 c 0
 -0 418.666666667 0 581.333333333 0 744 c 0
 0 747 3 750 6 750 c 2
 125 750 l 1
 125 869 l 2
 125 872 128 875 131 875 c 2
 744 875 l 2
 747 875 750 872 750 869 c 0
 750 456.333333333 750 43.6666666667 750 -369 c 0
 750 -372 747 -375 744 -375 c 0
 664.666666667 -375 585.333333333 -375 506 -375 c 0
 503 -375 500 -372 500 -369 c 0
 500 -204.333333333 500 -39.6666666667 500 125 c 1
 131 125 l 2
 128 125 125 128 125 131 c 2
 125 250 l 1
 6 250 l 2
500 625 m 1
 416.666666667 625 333.333333333 625 250 625 c 1
 250 541.666666667 250 458.333333333 250 375 c 1
 333.333333333 375 416.666666667 375 500 375 c 1
 500 458.333333333 500 541.666666667 500 625 c 1
EndSplineSet
EndChar

StartChar: u
Encoding: 117 117 166
Width: 875
VWidth: 875
Flags: W
HStem: 125 250<250 500> 855 20G<6 245.5 506 745.5>
VStem: 0 250<375 875> 500 250<375 875>
LayerCount: 2
Fore
SplineSet
6 250 m 2
 3 250 0 253 0 256 c 2
 0 869 l 2
 0 872 3 875 6 875 c 0
 85.3333333333 875 164.666666667 875 244 875 c 0
 247 875 250 872 250 869 c 0
 250 704.333333333 250 539.666666667 250 375 c 1
 333.333333333 375 416.666666667 375 500 375 c 1
 500 539.666666667 500 704.333333333 500 869 c 0
 500 872 503 875 506 875 c 0
 585.333333333 875 664.666666667 875 744 875 c 0
 747 875 750 872 750 869 c 2
 750 256 l 2
 750 253 747 250 744 250 c 2
 625 250 l 1
 625 131 l 2
 625 128 622 125 619 125 c 0
 456.333333333 125 293.666666667 125 131 125 c 0
 128 125 125 128 125 131 c 2
 125 250 l 1
 6 250 l 2
EndSplineSet
EndChar

StartChar: y
Encoding: 121 121 167
Width: 875
VWidth: 875
Flags: W
HStem: 125 250<250 500> 855 20G<6 245.5 506 745.5>
VStem: 0 250<375 875> 500 250<-375 125 375 875>
LayerCount: 2
Fore
SplineSet
6 250 m 2
 3 250 0 253 0 256 c 2
 0 869 l 2
 0 872 3 875 6 875 c 0
 85.3333333333 875 164.666666667 875 244 875 c 0
 247 875 250 872 250 869 c 0
 250 704.333333333 250 539.666666667 250 375 c 1
 333.333333333 375 416.666666667 375 500 375 c 1
 500 539.666666667 500 704.333333333 500 869 c 0
 500 872 503 875 506 875 c 0
 585.333333333 875 664.666666667 875 744 875 c 0
 747 875 750 872 750 869 c 0
 750 456.333333333 750 43.6666666667 750 -369 c 0
 750 -372 747 -375 744 -375 c 0
 664.666666667 -375 585.333333333 -375 506 -375 c 0
 503 -375 500 -372 500 -369 c 0
 500 -204.333333333 500 -39.6666666667 500 125 c 1
 131 125 l 2
 128 125 125 128 125 131 c 2
 125 250 l 1
 6 250 l 2
EndSplineSet
EndChar

